G04 MADE WITH FRITZING*
G04 WWW.FRITZING.ORG*
G04 DOUBLE SIDED*
G04 HOLES PLATED*
G04 CONTOUR ON CENTER OF CONTOUR VECTOR*
%ASAXBY*%
%FSLAX23Y23*%
%MOIN*%
%OFA0B0*%
%SFA1.0B1.0*%
%ADD10C,0.062992*%
%ADD11C,0.075000*%
%ADD12C,0.163386*%
%ADD13C,0.064944*%
%ADD14C,0.078000*%
%ADD15C,0.074000*%
%ADD16R,0.062992X0.062992*%
%ADD17R,0.143667X0.070200*%
%ADD18R,0.144000X0.070200*%
%ADD19R,0.078000X0.078000*%
%LNCOPPER1*%
G90*
G70*
G54D10*
X1514Y2559D03*
X1514Y2658D03*
G54D11*
X1114Y2559D03*
X1114Y2159D03*
G54D12*
X4714Y159D03*
X4714Y3359D03*
X214Y159D03*
X214Y3359D03*
G54D13*
X2114Y3359D03*
X2114Y3259D03*
X2114Y3159D03*
X2114Y3059D03*
X2114Y2959D03*
X2114Y2859D03*
X2114Y2759D03*
X2114Y2659D03*
X2114Y2559D03*
X2114Y2459D03*
X2114Y2359D03*
X2114Y2259D03*
X2114Y2159D03*
X2114Y2059D03*
X2114Y1959D03*
X2114Y1859D03*
X2114Y1759D03*
X2114Y1659D03*
X2114Y1559D03*
X2114Y1459D03*
X2813Y1459D03*
X2813Y1559D03*
X2813Y1659D03*
X2813Y1759D03*
X2813Y1859D03*
X2813Y1959D03*
X2813Y2059D03*
X2813Y2159D03*
X2813Y2259D03*
X2813Y2359D03*
X2813Y2459D03*
X2813Y2559D03*
X2813Y2659D03*
X2813Y2759D03*
X2813Y2859D03*
X2813Y2959D03*
X2813Y3059D03*
X2813Y3159D03*
X2813Y3259D03*
X2813Y3359D03*
X2493Y2176D03*
X2593Y2176D03*
X2693Y2176D03*
G54D14*
X4214Y1159D03*
X4014Y1159D03*
X3814Y1159D03*
G54D15*
X558Y837D03*
X814Y837D03*
X558Y659D03*
X814Y659D03*
X558Y837D03*
X814Y837D03*
X558Y659D03*
X814Y659D03*
X1158Y837D03*
X1414Y837D03*
X1158Y659D03*
X1414Y659D03*
X1158Y837D03*
X1414Y837D03*
X1158Y659D03*
X1414Y659D03*
X1158Y1337D03*
X1414Y1337D03*
X1158Y1159D03*
X1414Y1159D03*
X1158Y1337D03*
X1414Y1337D03*
X1158Y1159D03*
X1414Y1159D03*
X558Y1337D03*
X814Y1337D03*
X558Y1159D03*
X814Y1159D03*
X558Y1337D03*
X814Y1337D03*
X558Y1159D03*
X814Y1159D03*
G54D16*
X1514Y2559D03*
G54D17*
X2081Y3359D03*
G54D18*
X2081Y3259D03*
X2081Y3159D03*
X2081Y3059D03*
X2081Y2959D03*
X2081Y2859D03*
X2081Y2759D03*
X2081Y2659D03*
X2081Y2559D03*
X2081Y2459D03*
X2081Y2359D03*
X2081Y2259D03*
X2081Y2159D03*
X2081Y2059D03*
X2081Y1959D03*
X2081Y1859D03*
X2081Y1759D03*
X2081Y1659D03*
X2081Y1559D03*
X2081Y1459D03*
X2846Y1459D03*
X2846Y1559D03*
X2846Y1659D03*
X2846Y1759D03*
X2846Y1859D03*
X2846Y1959D03*
X2846Y2059D03*
X2846Y2159D03*
X2846Y2259D03*
X2846Y2359D03*
X2846Y2459D03*
X2846Y2559D03*
X2846Y2659D03*
X2846Y2759D03*
X2846Y2859D03*
X2846Y2959D03*
X2846Y3059D03*
X2846Y3159D03*
X2846Y3259D03*
X2846Y3359D03*
G54D19*
X4214Y1159D03*
G04 End of Copper1*
M02*