; NON-PLATED HOLES START AT T1
; THROUGH (PLATED) HOLES START AT T100
M48
INCH
T1C0.070000
T2C0.058000
T100C0.031497
T101C0.035000
T102C0.108268
T103C0.051056
T104C0.040000
T105C0.038000
%
T1
X023561Y033533
X025707Y033533
T2
X023676Y032335
X025582Y032335
T100
X015135Y026576
X015135Y025592
T101
X011135Y021592
X011135Y025592
T102
X002135Y033592
X047136Y001592
X002135Y001592
X047136Y033592
T103
X025925Y021762
X028131Y028592
X028131Y017592
X028131Y033592
X026925Y021762
X021136Y032592
X021136Y027592
X021136Y014592
X028131Y024592
X021136Y025592
X028131Y016592
X021136Y023592
X028131Y026592
X021136Y030592
X021136Y019592
X021136Y016592
X028131Y029592
X021136Y029592
X028131Y030592
X028131Y023592
X028131Y014592
X028131Y025592
X021136Y017592
X028131Y022592
X028131Y032592
X021136Y015592
X021136Y021592
X024925Y021762
X021136Y020592
X028131Y019592
X021136Y022592
X021136Y033592
X021136Y024586
X021136Y018592
X028131Y018592
X028131Y021592
X021136Y028592
X021136Y026592
X028131Y020592
X028131Y015592
X028131Y031592
X028131Y027592
X021136Y031592
T104
X008135Y006592
X011575Y013372
X008135Y013372
X005575Y008372
X008135Y008372
X014135Y011592
X005575Y011592
X005575Y013372
X011575Y008372
X014135Y006592
X014135Y008372
X008135Y011592
X005575Y006592
X011575Y011592
X014135Y013372
X011575Y006592
T105
X042135Y011592
X040135Y011592
X038135Y011592
T00
M30
