G04 MADE WITH FRITZING*
G04 WWW.FRITZING.ORG*
G04 DOUBLE SIDED*
G04 HOLES PLATED*
G04 CONTOUR ON CENTER OF CONTOUR VECTOR*
%ASAXBY*%
%FSLAX23Y23*%
%MOIN*%
%OFA0B0*%
%SFA1.0B1.0*%
%ADD10C,0.075000*%
%ADD11C,0.062992*%
%ADD12C,0.163386*%
%ADD13C,0.064944*%
%ADD14C,0.078000*%
%ADD15C,0.074000*%
%ADD16R,0.062992X0.062992*%
%ADD17R,0.143667X0.070200*%
%ADD18R,0.144000X0.070200*%
%ADD19R,0.078000X0.078000*%
%ADD20C,0.024000*%
%ADD21C,0.000100*%
%LNCOPPER0*%
G90*
G70*
G54D10*
X338Y3466D03*
X673Y3255D03*
X1494Y2908D03*
X3092Y2858D03*
X1859Y2762D03*
X3091Y2358D03*
X1688Y1461D03*
G54D11*
X1514Y2559D03*
X1514Y2658D03*
G54D10*
X1114Y2559D03*
X1114Y2159D03*
G54D12*
X4714Y159D03*
X4714Y3359D03*
X214Y159D03*
X214Y3359D03*
G54D13*
X2114Y3359D03*
X2114Y3259D03*
X2114Y3159D03*
X2114Y3059D03*
X2114Y2959D03*
X2114Y2859D03*
X2114Y2759D03*
X2114Y2659D03*
X2114Y2559D03*
X2114Y2459D03*
X2114Y2359D03*
X2114Y2259D03*
X2114Y2159D03*
X2114Y2059D03*
X2114Y1959D03*
X2114Y1859D03*
X2114Y1759D03*
X2114Y1659D03*
X2114Y1559D03*
X2114Y1459D03*
X2813Y1459D03*
X2813Y1559D03*
X2813Y1659D03*
X2813Y1759D03*
X2813Y1859D03*
X2813Y1959D03*
X2813Y2059D03*
X2813Y2159D03*
X2813Y2259D03*
X2813Y2359D03*
X2813Y2459D03*
X2813Y2559D03*
X2813Y2659D03*
X2813Y2759D03*
X2813Y2859D03*
X2813Y2959D03*
X2813Y3059D03*
X2813Y3159D03*
X2813Y3259D03*
X2813Y3359D03*
X2493Y2176D03*
X2593Y2176D03*
X2693Y2176D03*
G54D14*
X4214Y1159D03*
X4014Y1159D03*
X3814Y1159D03*
G54D15*
X558Y837D03*
X814Y837D03*
X558Y659D03*
X814Y659D03*
X1158Y837D03*
X1414Y837D03*
X1158Y659D03*
X1414Y659D03*
X1158Y1337D03*
X1414Y1337D03*
X1158Y1159D03*
X1414Y1159D03*
X558Y1337D03*
X814Y1337D03*
X558Y1159D03*
X814Y1159D03*
G54D16*
X1514Y2559D03*
G54D17*
X2081Y3359D03*
G54D18*
X2081Y3259D03*
X2081Y3159D03*
X2081Y3059D03*
X2081Y2959D03*
X2081Y2859D03*
X2081Y2759D03*
X2081Y2659D03*
X2081Y2559D03*
X2081Y2459D03*
X2081Y2359D03*
X2081Y2259D03*
X2081Y2159D03*
X2081Y2059D03*
X2081Y1959D03*
X2081Y1859D03*
X2081Y1759D03*
X2081Y1659D03*
X2081Y1559D03*
X2081Y1459D03*
X2846Y1459D03*
X2846Y1559D03*
X2846Y1659D03*
X2846Y1759D03*
X2846Y1859D03*
X2846Y1959D03*
X2846Y2059D03*
X2846Y2159D03*
X2846Y2259D03*
X2846Y2359D03*
X2846Y2459D03*
X2846Y2559D03*
X2846Y2659D03*
X2846Y2759D03*
X2846Y2859D03*
X2846Y2959D03*
X2846Y3059D03*
X2846Y3159D03*
X2846Y3259D03*
X2846Y3359D03*
G54D19*
X4214Y1159D03*
G54D20*
X1611Y2160D02*
X2088Y2159D01*
D02*
X1131Y2159D02*
X1611Y2160D01*
D02*
X1413Y2859D02*
X1126Y2572D01*
D02*
X1507Y2672D02*
X1413Y2859D01*
D02*
X1015Y1360D02*
X1515Y1661D01*
D02*
X1515Y1661D02*
X2088Y1659D01*
D02*
X1146Y1176D02*
X1015Y1360D01*
D02*
X834Y1159D02*
X1138Y1159D01*
D02*
X3815Y2961D02*
X2839Y2959D01*
D02*
X3814Y1178D02*
X3815Y2961D01*
D02*
X3514Y2461D02*
X2839Y2459D01*
D02*
X3712Y860D02*
X3514Y1161D01*
D02*
X3514Y1161D02*
X3514Y2461D01*
D02*
X4000Y1146D02*
X3712Y860D01*
D02*
X3315Y860D02*
X3315Y1661D01*
D02*
X3315Y1661D02*
X2839Y1659D01*
D02*
X3712Y559D02*
X3315Y860D01*
D02*
X4201Y1145D02*
X3712Y559D01*
D02*
X612Y3358D02*
X2088Y3359D01*
D02*
X215Y1558D02*
X612Y3358D01*
D02*
X215Y860D02*
X215Y1558D01*
D02*
X538Y839D02*
X215Y860D01*
D02*
X1611Y1558D02*
X2088Y1559D01*
D02*
X1427Y1352D02*
X1611Y1558D01*
D02*
X1816Y1462D02*
X2088Y1459D01*
D02*
X1423Y677D02*
X1816Y1462D01*
D02*
X1143Y851D02*
X828Y1146D01*
D02*
X831Y668D02*
X1140Y828D01*
D02*
X562Y1357D02*
X913Y3057D01*
D02*
X913Y3057D02*
X2088Y3059D01*
D02*
X1816Y2961D02*
X2088Y2959D01*
D02*
X1522Y2546D02*
X1714Y2257D01*
D02*
X1714Y2257D02*
X1816Y2961D01*
G54D21*
G36*
X40Y3538D02*
X40Y3452D01*
X218Y3452D01*
X218Y3450D01*
X232Y3450D01*
X232Y3448D01*
X240Y3448D01*
X240Y3446D01*
X246Y3446D01*
X246Y3444D01*
X252Y3444D01*
X252Y3442D01*
X256Y3442D01*
X256Y3440D01*
X258Y3440D01*
X258Y3438D01*
X262Y3438D01*
X262Y3436D01*
X266Y3436D01*
X266Y3434D01*
X268Y3434D01*
X268Y3432D01*
X270Y3432D01*
X270Y3430D01*
X274Y3430D01*
X274Y3428D01*
X276Y3428D01*
X276Y3426D01*
X278Y3426D01*
X278Y3424D01*
X280Y3424D01*
X280Y3422D01*
X282Y3422D01*
X282Y3420D01*
X284Y3420D01*
X284Y3416D01*
X286Y3416D01*
X286Y3414D01*
X288Y3414D01*
X288Y3412D01*
X290Y3412D01*
X290Y3408D01*
X292Y3408D01*
X292Y3406D01*
X294Y3406D01*
X294Y3402D01*
X296Y3402D01*
X296Y3398D01*
X298Y3398D01*
X298Y3392D01*
X300Y3392D01*
X300Y3388D01*
X302Y3388D01*
X302Y3380D01*
X304Y3380D01*
X304Y3364D01*
X306Y3364D01*
X306Y3354D01*
X304Y3354D01*
X304Y3340D01*
X302Y3340D01*
X302Y3332D01*
X300Y3332D01*
X300Y3326D01*
X298Y3326D01*
X298Y3322D01*
X296Y3322D01*
X296Y3318D01*
X294Y3318D01*
X294Y3314D01*
X292Y3314D01*
X292Y3310D01*
X290Y3310D01*
X290Y3308D01*
X288Y3308D01*
X288Y3304D01*
X286Y3304D01*
X286Y3302D01*
X284Y3302D01*
X284Y3300D01*
X282Y3300D01*
X282Y3298D01*
X280Y3298D01*
X280Y3296D01*
X278Y3296D01*
X278Y3294D01*
X276Y3294D01*
X276Y3292D01*
X274Y3292D01*
X274Y3290D01*
X272Y3290D01*
X272Y3288D01*
X270Y3288D01*
X270Y3286D01*
X266Y3286D01*
X266Y3284D01*
X264Y3284D01*
X264Y3282D01*
X260Y3282D01*
X260Y3280D01*
X258Y3280D01*
X258Y3278D01*
X254Y3278D01*
X254Y3276D01*
X250Y3276D01*
X250Y3274D01*
X244Y3274D01*
X244Y3272D01*
X236Y3272D01*
X236Y3270D01*
X228Y3270D01*
X228Y3268D01*
X570Y3268D01*
X570Y3274D01*
X572Y3274D01*
X572Y3284D01*
X574Y3284D01*
X574Y3292D01*
X576Y3292D01*
X576Y3302D01*
X578Y3302D01*
X578Y3310D01*
X580Y3310D01*
X580Y3320D01*
X582Y3320D01*
X582Y3328D01*
X584Y3328D01*
X584Y3338D01*
X586Y3338D01*
X586Y3346D01*
X588Y3346D01*
X588Y3356D01*
X590Y3356D01*
X590Y3364D01*
X592Y3364D01*
X592Y3370D01*
X594Y3370D01*
X594Y3372D01*
X596Y3372D01*
X596Y3374D01*
X598Y3374D01*
X598Y3376D01*
X600Y3376D01*
X600Y3378D01*
X604Y3378D01*
X604Y3380D01*
X1360Y3380D01*
X1360Y3382D01*
X1924Y3382D01*
X1924Y3538D01*
X40Y3538D01*
G37*
D02*
G36*
X3012Y3538D02*
X3012Y3452D01*
X4718Y3452D01*
X4718Y3450D01*
X4732Y3450D01*
X4732Y3448D01*
X4740Y3448D01*
X4740Y3446D01*
X4746Y3446D01*
X4746Y3444D01*
X4752Y3444D01*
X4752Y3442D01*
X4756Y3442D01*
X4756Y3440D01*
X4758Y3440D01*
X4758Y3438D01*
X4762Y3438D01*
X4762Y3436D01*
X4766Y3436D01*
X4766Y3434D01*
X4768Y3434D01*
X4768Y3432D01*
X4770Y3432D01*
X4770Y3430D01*
X4774Y3430D01*
X4774Y3428D01*
X4776Y3428D01*
X4776Y3426D01*
X4778Y3426D01*
X4778Y3424D01*
X4780Y3424D01*
X4780Y3422D01*
X4782Y3422D01*
X4782Y3420D01*
X4784Y3420D01*
X4784Y3416D01*
X4786Y3416D01*
X4786Y3414D01*
X4788Y3414D01*
X4788Y3412D01*
X4790Y3412D01*
X4790Y3408D01*
X4792Y3408D01*
X4792Y3406D01*
X4794Y3406D01*
X4794Y3402D01*
X4796Y3402D01*
X4796Y3398D01*
X4798Y3398D01*
X4798Y3392D01*
X4800Y3392D01*
X4800Y3388D01*
X4802Y3388D01*
X4802Y3380D01*
X4804Y3380D01*
X4804Y3364D01*
X4806Y3364D01*
X4806Y3354D01*
X4804Y3354D01*
X4804Y3340D01*
X4802Y3340D01*
X4802Y3332D01*
X4800Y3332D01*
X4800Y3326D01*
X4798Y3326D01*
X4798Y3322D01*
X4796Y3322D01*
X4796Y3318D01*
X4794Y3318D01*
X4794Y3314D01*
X4792Y3314D01*
X4792Y3310D01*
X4790Y3310D01*
X4790Y3308D01*
X4788Y3308D01*
X4788Y3304D01*
X4786Y3304D01*
X4786Y3302D01*
X4784Y3302D01*
X4784Y3300D01*
X4782Y3300D01*
X4782Y3298D01*
X4780Y3298D01*
X4780Y3296D01*
X4778Y3296D01*
X4778Y3294D01*
X4776Y3294D01*
X4776Y3292D01*
X4774Y3292D01*
X4774Y3290D01*
X4772Y3290D01*
X4772Y3288D01*
X4770Y3288D01*
X4770Y3286D01*
X4766Y3286D01*
X4766Y3284D01*
X4764Y3284D01*
X4764Y3282D01*
X4760Y3282D01*
X4760Y3280D01*
X4758Y3280D01*
X4758Y3278D01*
X4754Y3278D01*
X4754Y3276D01*
X4750Y3276D01*
X4750Y3274D01*
X4744Y3274D01*
X4744Y3272D01*
X4736Y3272D01*
X4736Y3270D01*
X4728Y3270D01*
X4728Y3268D01*
X4834Y3268D01*
X4834Y3538D01*
X3012Y3538D01*
G37*
D02*
G36*
X40Y3452D02*
X40Y3268D01*
X200Y3268D01*
X200Y3270D01*
X190Y3270D01*
X190Y3272D01*
X184Y3272D01*
X184Y3274D01*
X178Y3274D01*
X178Y3276D01*
X174Y3276D01*
X174Y3278D01*
X170Y3278D01*
X170Y3280D01*
X166Y3280D01*
X166Y3282D01*
X164Y3282D01*
X164Y3284D01*
X160Y3284D01*
X160Y3286D01*
X158Y3286D01*
X158Y3288D01*
X156Y3288D01*
X156Y3290D01*
X152Y3290D01*
X152Y3292D01*
X150Y3292D01*
X150Y3294D01*
X148Y3294D01*
X148Y3296D01*
X146Y3296D01*
X146Y3298D01*
X144Y3298D01*
X144Y3302D01*
X142Y3302D01*
X142Y3304D01*
X140Y3304D01*
X140Y3306D01*
X138Y3306D01*
X138Y3310D01*
X136Y3310D01*
X136Y3312D01*
X134Y3312D01*
X134Y3316D01*
X132Y3316D01*
X132Y3320D01*
X130Y3320D01*
X130Y3324D01*
X128Y3324D01*
X128Y3330D01*
X126Y3330D01*
X126Y3336D01*
X124Y3336D01*
X124Y3346D01*
X122Y3346D01*
X122Y3372D01*
X124Y3372D01*
X124Y3382D01*
X126Y3382D01*
X126Y3390D01*
X128Y3390D01*
X128Y3394D01*
X130Y3394D01*
X130Y3400D01*
X132Y3400D01*
X132Y3404D01*
X134Y3404D01*
X134Y3406D01*
X136Y3406D01*
X136Y3410D01*
X138Y3410D01*
X138Y3412D01*
X140Y3412D01*
X140Y3416D01*
X142Y3416D01*
X142Y3418D01*
X144Y3418D01*
X144Y3420D01*
X146Y3420D01*
X146Y3422D01*
X148Y3422D01*
X148Y3424D01*
X150Y3424D01*
X150Y3426D01*
X152Y3426D01*
X152Y3428D01*
X154Y3428D01*
X154Y3430D01*
X156Y3430D01*
X156Y3432D01*
X160Y3432D01*
X160Y3434D01*
X162Y3434D01*
X162Y3436D01*
X164Y3436D01*
X164Y3438D01*
X168Y3438D01*
X168Y3440D01*
X172Y3440D01*
X172Y3442D01*
X176Y3442D01*
X176Y3444D01*
X180Y3444D01*
X180Y3446D01*
X186Y3446D01*
X186Y3448D01*
X194Y3448D01*
X194Y3450D01*
X210Y3450D01*
X210Y3452D01*
X40Y3452D01*
G37*
D02*
G36*
X3012Y3452D02*
X3012Y3268D01*
X4700Y3268D01*
X4700Y3270D01*
X4690Y3270D01*
X4690Y3272D01*
X4684Y3272D01*
X4684Y3274D01*
X4678Y3274D01*
X4678Y3276D01*
X4674Y3276D01*
X4674Y3278D01*
X4670Y3278D01*
X4670Y3280D01*
X4666Y3280D01*
X4666Y3282D01*
X4664Y3282D01*
X4664Y3284D01*
X4660Y3284D01*
X4660Y3286D01*
X4658Y3286D01*
X4658Y3288D01*
X4656Y3288D01*
X4656Y3290D01*
X4652Y3290D01*
X4652Y3292D01*
X4650Y3292D01*
X4650Y3294D01*
X4648Y3294D01*
X4648Y3296D01*
X4646Y3296D01*
X4646Y3298D01*
X4644Y3298D01*
X4644Y3302D01*
X4642Y3302D01*
X4642Y3304D01*
X4640Y3304D01*
X4640Y3306D01*
X4638Y3306D01*
X4638Y3310D01*
X4636Y3310D01*
X4636Y3312D01*
X4634Y3312D01*
X4634Y3316D01*
X4632Y3316D01*
X4632Y3320D01*
X4630Y3320D01*
X4630Y3324D01*
X4628Y3324D01*
X4628Y3330D01*
X4626Y3330D01*
X4626Y3336D01*
X4624Y3336D01*
X4624Y3346D01*
X4622Y3346D01*
X4622Y3372D01*
X4624Y3372D01*
X4624Y3382D01*
X4626Y3382D01*
X4626Y3390D01*
X4628Y3390D01*
X4628Y3394D01*
X4630Y3394D01*
X4630Y3400D01*
X4632Y3400D01*
X4632Y3404D01*
X4634Y3404D01*
X4634Y3406D01*
X4636Y3406D01*
X4636Y3410D01*
X4638Y3410D01*
X4638Y3412D01*
X4640Y3412D01*
X4640Y3416D01*
X4642Y3416D01*
X4642Y3418D01*
X4644Y3418D01*
X4644Y3420D01*
X4646Y3420D01*
X4646Y3422D01*
X4648Y3422D01*
X4648Y3424D01*
X4650Y3424D01*
X4650Y3426D01*
X4652Y3426D01*
X4652Y3428D01*
X4654Y3428D01*
X4654Y3430D01*
X4656Y3430D01*
X4656Y3432D01*
X4660Y3432D01*
X4660Y3434D01*
X4662Y3434D01*
X4662Y3436D01*
X4664Y3436D01*
X4664Y3438D01*
X4668Y3438D01*
X4668Y3440D01*
X4672Y3440D01*
X4672Y3442D01*
X4676Y3442D01*
X4676Y3444D01*
X4680Y3444D01*
X4680Y3446D01*
X4686Y3446D01*
X4686Y3448D01*
X4694Y3448D01*
X4694Y3450D01*
X4710Y3450D01*
X4710Y3452D01*
X3012Y3452D01*
G37*
D02*
G36*
X40Y3268D02*
X40Y3266D01*
X570Y3266D01*
X570Y3268D01*
X40Y3268D01*
G37*
D02*
G36*
X40Y3268D02*
X40Y3266D01*
X570Y3266D01*
X570Y3268D01*
X40Y3268D01*
G37*
D02*
G36*
X3012Y3268D02*
X3012Y3266D01*
X4834Y3266D01*
X4834Y3268D01*
X3012Y3268D01*
G37*
D02*
G36*
X3012Y3268D02*
X3012Y3266D01*
X4834Y3266D01*
X4834Y3268D01*
X3012Y3268D01*
G37*
D02*
G36*
X40Y3266D02*
X40Y426D01*
X388Y426D01*
X388Y826D01*
X384Y826D01*
X384Y828D01*
X354Y828D01*
X354Y830D01*
X324Y830D01*
X324Y832D01*
X294Y832D01*
X294Y834D01*
X264Y834D01*
X264Y836D01*
X234Y836D01*
X234Y838D01*
X210Y838D01*
X210Y840D01*
X204Y840D01*
X204Y842D01*
X202Y842D01*
X202Y844D01*
X200Y844D01*
X200Y846D01*
X198Y846D01*
X198Y848D01*
X196Y848D01*
X196Y850D01*
X194Y850D01*
X194Y858D01*
X192Y858D01*
X192Y1560D01*
X194Y1560D01*
X194Y1570D01*
X196Y1570D01*
X196Y1580D01*
X198Y1580D01*
X198Y1588D01*
X200Y1588D01*
X200Y1598D01*
X202Y1598D01*
X202Y1606D01*
X204Y1606D01*
X204Y1616D01*
X206Y1616D01*
X206Y1626D01*
X208Y1626D01*
X208Y1634D01*
X210Y1634D01*
X210Y1644D01*
X212Y1644D01*
X212Y1652D01*
X214Y1652D01*
X214Y1662D01*
X216Y1662D01*
X216Y1670D01*
X218Y1670D01*
X218Y1680D01*
X220Y1680D01*
X220Y1688D01*
X222Y1688D01*
X222Y1698D01*
X224Y1698D01*
X224Y1706D01*
X226Y1706D01*
X226Y1716D01*
X228Y1716D01*
X228Y1724D01*
X230Y1724D01*
X230Y1734D01*
X232Y1734D01*
X232Y1742D01*
X234Y1742D01*
X234Y1752D01*
X236Y1752D01*
X236Y1762D01*
X238Y1762D01*
X238Y1770D01*
X240Y1770D01*
X240Y1780D01*
X242Y1780D01*
X242Y1788D01*
X244Y1788D01*
X244Y1798D01*
X246Y1798D01*
X246Y1806D01*
X248Y1806D01*
X248Y1816D01*
X250Y1816D01*
X250Y1824D01*
X252Y1824D01*
X252Y1834D01*
X254Y1834D01*
X254Y1842D01*
X256Y1842D01*
X256Y1852D01*
X258Y1852D01*
X258Y1860D01*
X260Y1860D01*
X260Y1870D01*
X262Y1870D01*
X262Y1878D01*
X264Y1878D01*
X264Y1888D01*
X266Y1888D01*
X266Y1896D01*
X268Y1896D01*
X268Y1906D01*
X270Y1906D01*
X270Y1916D01*
X272Y1916D01*
X272Y1924D01*
X274Y1924D01*
X274Y1934D01*
X276Y1934D01*
X276Y1942D01*
X278Y1942D01*
X278Y1952D01*
X280Y1952D01*
X280Y1960D01*
X282Y1960D01*
X282Y1970D01*
X284Y1970D01*
X284Y1978D01*
X286Y1978D01*
X286Y1988D01*
X288Y1988D01*
X288Y1996D01*
X290Y1996D01*
X290Y2006D01*
X292Y2006D01*
X292Y2014D01*
X294Y2014D01*
X294Y2024D01*
X296Y2024D01*
X296Y2032D01*
X298Y2032D01*
X298Y2042D01*
X300Y2042D01*
X300Y2050D01*
X302Y2050D01*
X302Y2060D01*
X304Y2060D01*
X304Y2070D01*
X306Y2070D01*
X306Y2078D01*
X308Y2078D01*
X308Y2088D01*
X310Y2088D01*
X310Y2096D01*
X312Y2096D01*
X312Y2106D01*
X314Y2106D01*
X314Y2114D01*
X316Y2114D01*
X316Y2124D01*
X318Y2124D01*
X318Y2132D01*
X320Y2132D01*
X320Y2142D01*
X322Y2142D01*
X322Y2150D01*
X324Y2150D01*
X324Y2160D01*
X326Y2160D01*
X326Y2168D01*
X328Y2168D01*
X328Y2178D01*
X330Y2178D01*
X330Y2186D01*
X332Y2186D01*
X332Y2196D01*
X334Y2196D01*
X334Y2206D01*
X336Y2206D01*
X336Y2214D01*
X338Y2214D01*
X338Y2224D01*
X340Y2224D01*
X340Y2232D01*
X342Y2232D01*
X342Y2242D01*
X344Y2242D01*
X344Y2250D01*
X346Y2250D01*
X346Y2260D01*
X348Y2260D01*
X348Y2268D01*
X350Y2268D01*
X350Y2278D01*
X352Y2278D01*
X352Y2286D01*
X354Y2286D01*
X354Y2296D01*
X356Y2296D01*
X356Y2304D01*
X358Y2304D01*
X358Y2314D01*
X360Y2314D01*
X360Y2322D01*
X362Y2322D01*
X362Y2332D01*
X364Y2332D01*
X364Y2340D01*
X366Y2340D01*
X366Y2350D01*
X368Y2350D01*
X368Y2360D01*
X370Y2360D01*
X370Y2368D01*
X372Y2368D01*
X372Y2378D01*
X374Y2378D01*
X374Y2386D01*
X376Y2386D01*
X376Y2396D01*
X378Y2396D01*
X378Y2404D01*
X380Y2404D01*
X380Y2414D01*
X382Y2414D01*
X382Y2422D01*
X384Y2422D01*
X384Y2432D01*
X386Y2432D01*
X386Y2440D01*
X388Y2440D01*
X388Y2450D01*
X390Y2450D01*
X390Y2458D01*
X392Y2458D01*
X392Y2468D01*
X394Y2468D01*
X394Y2476D01*
X396Y2476D01*
X396Y2486D01*
X398Y2486D01*
X398Y2494D01*
X400Y2494D01*
X400Y2504D01*
X402Y2504D01*
X402Y2514D01*
X404Y2514D01*
X404Y2522D01*
X406Y2522D01*
X406Y2532D01*
X408Y2532D01*
X408Y2540D01*
X410Y2540D01*
X410Y2550D01*
X412Y2550D01*
X412Y2558D01*
X414Y2558D01*
X414Y2568D01*
X416Y2568D01*
X416Y2576D01*
X418Y2576D01*
X418Y2586D01*
X420Y2586D01*
X420Y2594D01*
X422Y2594D01*
X422Y2604D01*
X424Y2604D01*
X424Y2612D01*
X426Y2612D01*
X426Y2622D01*
X428Y2622D01*
X428Y2630D01*
X430Y2630D01*
X430Y2640D01*
X432Y2640D01*
X432Y2650D01*
X434Y2650D01*
X434Y2658D01*
X436Y2658D01*
X436Y2668D01*
X438Y2668D01*
X438Y2676D01*
X440Y2676D01*
X440Y2686D01*
X442Y2686D01*
X442Y2694D01*
X444Y2694D01*
X444Y2704D01*
X446Y2704D01*
X446Y2712D01*
X448Y2712D01*
X448Y2722D01*
X450Y2722D01*
X450Y2730D01*
X452Y2730D01*
X452Y2740D01*
X454Y2740D01*
X454Y2748D01*
X456Y2748D01*
X456Y2758D01*
X458Y2758D01*
X458Y2766D01*
X460Y2766D01*
X460Y2776D01*
X462Y2776D01*
X462Y2784D01*
X464Y2784D01*
X464Y2794D01*
X466Y2794D01*
X466Y2804D01*
X468Y2804D01*
X468Y2812D01*
X470Y2812D01*
X470Y2822D01*
X472Y2822D01*
X472Y2830D01*
X474Y2830D01*
X474Y2840D01*
X476Y2840D01*
X476Y2848D01*
X478Y2848D01*
X478Y2858D01*
X480Y2858D01*
X480Y2866D01*
X482Y2866D01*
X482Y2876D01*
X484Y2876D01*
X484Y2884D01*
X486Y2884D01*
X486Y2894D01*
X488Y2894D01*
X488Y2902D01*
X490Y2902D01*
X490Y2912D01*
X492Y2912D01*
X492Y2920D01*
X494Y2920D01*
X494Y2930D01*
X496Y2930D01*
X496Y2938D01*
X498Y2938D01*
X498Y2948D01*
X500Y2948D01*
X500Y2958D01*
X502Y2958D01*
X502Y2966D01*
X504Y2966D01*
X504Y2976D01*
X506Y2976D01*
X506Y2984D01*
X508Y2984D01*
X508Y2994D01*
X510Y2994D01*
X510Y3002D01*
X512Y3002D01*
X512Y3012D01*
X514Y3012D01*
X514Y3020D01*
X516Y3020D01*
X516Y3030D01*
X518Y3030D01*
X518Y3038D01*
X520Y3038D01*
X520Y3048D01*
X522Y3048D01*
X522Y3056D01*
X524Y3056D01*
X524Y3066D01*
X526Y3066D01*
X526Y3074D01*
X528Y3074D01*
X528Y3084D01*
X530Y3084D01*
X530Y3094D01*
X532Y3094D01*
X532Y3102D01*
X534Y3102D01*
X534Y3112D01*
X536Y3112D01*
X536Y3120D01*
X538Y3120D01*
X538Y3130D01*
X540Y3130D01*
X540Y3138D01*
X542Y3138D01*
X542Y3148D01*
X544Y3148D01*
X544Y3156D01*
X546Y3156D01*
X546Y3166D01*
X548Y3166D01*
X548Y3174D01*
X550Y3174D01*
X550Y3184D01*
X552Y3184D01*
X552Y3192D01*
X554Y3192D01*
X554Y3202D01*
X556Y3202D01*
X556Y3210D01*
X558Y3210D01*
X558Y3220D01*
X560Y3220D01*
X560Y3228D01*
X562Y3228D01*
X562Y3238D01*
X564Y3238D01*
X564Y3248D01*
X566Y3248D01*
X566Y3256D01*
X568Y3256D01*
X568Y3266D01*
X40Y3266D01*
G37*
D02*
G36*
X3012Y3266D02*
X3012Y2984D01*
X3816Y2984D01*
X3816Y2982D01*
X3824Y2982D01*
X3824Y2980D01*
X3828Y2980D01*
X3828Y2978D01*
X3830Y2978D01*
X3830Y2976D01*
X3832Y2976D01*
X3832Y2974D01*
X3834Y2974D01*
X3834Y2970D01*
X3836Y2970D01*
X3836Y1342D01*
X4440Y1342D01*
X4440Y918D01*
X4040Y918D01*
X4040Y916D01*
X4038Y916D01*
X4038Y914D01*
X4036Y914D01*
X4036Y912D01*
X4034Y912D01*
X4034Y908D01*
X4032Y908D01*
X4032Y906D01*
X4030Y906D01*
X4030Y904D01*
X4028Y904D01*
X4028Y902D01*
X4026Y902D01*
X4026Y900D01*
X4024Y900D01*
X4024Y896D01*
X4022Y896D01*
X4022Y894D01*
X4020Y894D01*
X4020Y892D01*
X4018Y892D01*
X4018Y890D01*
X4016Y890D01*
X4016Y888D01*
X4014Y888D01*
X4014Y884D01*
X4012Y884D01*
X4012Y882D01*
X4010Y882D01*
X4010Y880D01*
X4008Y880D01*
X4008Y878D01*
X4006Y878D01*
X4006Y876D01*
X4004Y876D01*
X4004Y874D01*
X4002Y874D01*
X4002Y870D01*
X4000Y870D01*
X4000Y868D01*
X3998Y868D01*
X3998Y866D01*
X3996Y866D01*
X3996Y864D01*
X3994Y864D01*
X3994Y862D01*
X3992Y862D01*
X3992Y858D01*
X3990Y858D01*
X3990Y856D01*
X3988Y856D01*
X3988Y854D01*
X3986Y854D01*
X3986Y852D01*
X3984Y852D01*
X3984Y850D01*
X3982Y850D01*
X3982Y846D01*
X3980Y846D01*
X3980Y844D01*
X3978Y844D01*
X3978Y842D01*
X3976Y842D01*
X3976Y840D01*
X3974Y840D01*
X3974Y838D01*
X3972Y838D01*
X3972Y834D01*
X3970Y834D01*
X3970Y832D01*
X3968Y832D01*
X3968Y830D01*
X3966Y830D01*
X3966Y828D01*
X3964Y828D01*
X3964Y826D01*
X3962Y826D01*
X3962Y822D01*
X3960Y822D01*
X3960Y820D01*
X3958Y820D01*
X3958Y818D01*
X3956Y818D01*
X3956Y816D01*
X3954Y816D01*
X3954Y814D01*
X3952Y814D01*
X3952Y810D01*
X3950Y810D01*
X3950Y808D01*
X3948Y808D01*
X3948Y806D01*
X3946Y806D01*
X3946Y804D01*
X3944Y804D01*
X3944Y802D01*
X3942Y802D01*
X3942Y798D01*
X3940Y798D01*
X3940Y796D01*
X3938Y796D01*
X3938Y794D01*
X3936Y794D01*
X3936Y792D01*
X3934Y792D01*
X3934Y790D01*
X3932Y790D01*
X3932Y786D01*
X3930Y786D01*
X3930Y784D01*
X3928Y784D01*
X3928Y782D01*
X3926Y782D01*
X3926Y780D01*
X3924Y780D01*
X3924Y778D01*
X3922Y778D01*
X3922Y774D01*
X3920Y774D01*
X3920Y772D01*
X3918Y772D01*
X3918Y770D01*
X3916Y770D01*
X3916Y768D01*
X3914Y768D01*
X3914Y766D01*
X3912Y766D01*
X3912Y762D01*
X3910Y762D01*
X3910Y760D01*
X3908Y760D01*
X3908Y758D01*
X3906Y758D01*
X3906Y756D01*
X3904Y756D01*
X3904Y754D01*
X3902Y754D01*
X3902Y750D01*
X3900Y750D01*
X3900Y748D01*
X3898Y748D01*
X3898Y746D01*
X3896Y746D01*
X3896Y744D01*
X3894Y744D01*
X3894Y742D01*
X3892Y742D01*
X3892Y738D01*
X3890Y738D01*
X3890Y736D01*
X3888Y736D01*
X3888Y734D01*
X3886Y734D01*
X3886Y732D01*
X3884Y732D01*
X3884Y730D01*
X3882Y730D01*
X3882Y726D01*
X3880Y726D01*
X3880Y724D01*
X3878Y724D01*
X3878Y722D01*
X3876Y722D01*
X3876Y720D01*
X3874Y720D01*
X3874Y718D01*
X3872Y718D01*
X3872Y714D01*
X3870Y714D01*
X3870Y712D01*
X3868Y712D01*
X3868Y710D01*
X3866Y710D01*
X3866Y708D01*
X3864Y708D01*
X3864Y706D01*
X3862Y706D01*
X3862Y704D01*
X3860Y704D01*
X3860Y700D01*
X3858Y700D01*
X3858Y698D01*
X3856Y698D01*
X3856Y696D01*
X3854Y696D01*
X3854Y694D01*
X3852Y694D01*
X3852Y692D01*
X3850Y692D01*
X3850Y688D01*
X3848Y688D01*
X3848Y686D01*
X3846Y686D01*
X3846Y684D01*
X3844Y684D01*
X3844Y682D01*
X3842Y682D01*
X3842Y680D01*
X3840Y680D01*
X3840Y676D01*
X3838Y676D01*
X3838Y674D01*
X3836Y674D01*
X3836Y672D01*
X3834Y672D01*
X3834Y670D01*
X3832Y670D01*
X3832Y668D01*
X3830Y668D01*
X3830Y664D01*
X3828Y664D01*
X3828Y662D01*
X3826Y662D01*
X3826Y660D01*
X3824Y660D01*
X3824Y658D01*
X3822Y658D01*
X3822Y656D01*
X3820Y656D01*
X3820Y652D01*
X3818Y652D01*
X3818Y650D01*
X3816Y650D01*
X3816Y648D01*
X3814Y648D01*
X3814Y646D01*
X3812Y646D01*
X3812Y644D01*
X3810Y644D01*
X3810Y640D01*
X3808Y640D01*
X3808Y638D01*
X3806Y638D01*
X3806Y636D01*
X3804Y636D01*
X3804Y634D01*
X3802Y634D01*
X3802Y632D01*
X3800Y632D01*
X3800Y628D01*
X3798Y628D01*
X3798Y626D01*
X3796Y626D01*
X3796Y624D01*
X3794Y624D01*
X3794Y622D01*
X3792Y622D01*
X3792Y620D01*
X3790Y620D01*
X3790Y616D01*
X3788Y616D01*
X3788Y614D01*
X3786Y614D01*
X3786Y612D01*
X3784Y612D01*
X3784Y610D01*
X3782Y610D01*
X3782Y608D01*
X3780Y608D01*
X3780Y604D01*
X3778Y604D01*
X3778Y602D01*
X3776Y602D01*
X3776Y600D01*
X3774Y600D01*
X3774Y598D01*
X3772Y598D01*
X3772Y596D01*
X3770Y596D01*
X3770Y592D01*
X3768Y592D01*
X3768Y590D01*
X3766Y590D01*
X3766Y588D01*
X3764Y588D01*
X3764Y586D01*
X3762Y586D01*
X3762Y584D01*
X3760Y584D01*
X3760Y580D01*
X3758Y580D01*
X3758Y578D01*
X3756Y578D01*
X3756Y576D01*
X3754Y576D01*
X3754Y574D01*
X3752Y574D01*
X3752Y572D01*
X3750Y572D01*
X3750Y568D01*
X3748Y568D01*
X3748Y566D01*
X3746Y566D01*
X3746Y564D01*
X3744Y564D01*
X3744Y562D01*
X3742Y562D01*
X3742Y560D01*
X3740Y560D01*
X3740Y556D01*
X3738Y556D01*
X3738Y554D01*
X3736Y554D01*
X3736Y552D01*
X3734Y552D01*
X3734Y550D01*
X3732Y550D01*
X3732Y548D01*
X3730Y548D01*
X3730Y546D01*
X3728Y546D01*
X3728Y544D01*
X3726Y544D01*
X3726Y542D01*
X3724Y542D01*
X3724Y540D01*
X3720Y540D01*
X3720Y538D01*
X4834Y538D01*
X4834Y3266D01*
X3012Y3266D01*
G37*
D02*
G36*
X3012Y2984D02*
X3012Y2982D01*
X3698Y2982D01*
X3698Y2984D01*
X3012Y2984D01*
G37*
D02*
G36*
X3012Y1638D02*
X3012Y1328D01*
X3292Y1328D01*
X3292Y1638D01*
X3012Y1638D01*
G37*
D02*
G36*
X1830Y1440D02*
X1830Y1438D01*
X1828Y1438D01*
X1828Y1434D01*
X1826Y1434D01*
X1826Y1430D01*
X1824Y1430D01*
X1824Y1426D01*
X1822Y1426D01*
X1822Y1422D01*
X1820Y1422D01*
X1820Y1418D01*
X1818Y1418D01*
X1818Y1416D01*
X1816Y1416D01*
X1816Y1412D01*
X1814Y1412D01*
X1814Y1408D01*
X1812Y1408D01*
X1812Y1404D01*
X1810Y1404D01*
X1810Y1400D01*
X1808Y1400D01*
X1808Y1396D01*
X1806Y1396D01*
X1806Y1392D01*
X1804Y1392D01*
X1804Y1388D01*
X1802Y1388D01*
X1802Y1384D01*
X1800Y1384D01*
X1800Y1380D01*
X1798Y1380D01*
X1798Y1376D01*
X1796Y1376D01*
X1796Y1372D01*
X1794Y1372D01*
X1794Y1368D01*
X1792Y1368D01*
X1792Y1364D01*
X1790Y1364D01*
X1790Y1360D01*
X1788Y1360D01*
X1788Y1356D01*
X1786Y1356D01*
X1786Y1352D01*
X1784Y1352D01*
X1784Y1348D01*
X1782Y1348D01*
X1782Y1344D01*
X1780Y1344D01*
X1780Y1340D01*
X1778Y1340D01*
X1778Y1336D01*
X1776Y1336D01*
X1776Y1332D01*
X1774Y1332D01*
X1774Y1328D01*
X1924Y1328D01*
X1924Y1440D01*
X1830Y1440D01*
G37*
D02*
G36*
X1772Y1328D02*
X1772Y1326D01*
X3292Y1326D01*
X3292Y1328D01*
X1772Y1328D01*
G37*
D02*
G36*
X1772Y1328D02*
X1772Y1326D01*
X3292Y1326D01*
X3292Y1328D01*
X1772Y1328D01*
G37*
D02*
G36*
X1772Y1326D02*
X1772Y1324D01*
X1770Y1324D01*
X1770Y1320D01*
X1768Y1320D01*
X1768Y1316D01*
X1766Y1316D01*
X1766Y1312D01*
X1764Y1312D01*
X1764Y1308D01*
X1762Y1308D01*
X1762Y1304D01*
X1760Y1304D01*
X1760Y1300D01*
X1758Y1300D01*
X1758Y1296D01*
X1756Y1296D01*
X1756Y1292D01*
X1754Y1292D01*
X1754Y1288D01*
X1752Y1288D01*
X1752Y1284D01*
X1750Y1284D01*
X1750Y1280D01*
X1748Y1280D01*
X1748Y1276D01*
X1746Y1276D01*
X1746Y1272D01*
X1744Y1272D01*
X1744Y1268D01*
X1742Y1268D01*
X1742Y1264D01*
X1740Y1264D01*
X1740Y1260D01*
X1738Y1260D01*
X1738Y1256D01*
X1736Y1256D01*
X1736Y1252D01*
X1734Y1252D01*
X1734Y1248D01*
X1732Y1248D01*
X1732Y1244D01*
X1730Y1244D01*
X1730Y1240D01*
X1728Y1240D01*
X1728Y1236D01*
X1726Y1236D01*
X1726Y1232D01*
X1724Y1232D01*
X1724Y1228D01*
X1722Y1228D01*
X1722Y1224D01*
X1720Y1224D01*
X1720Y1220D01*
X1718Y1220D01*
X1718Y1216D01*
X1716Y1216D01*
X1716Y1212D01*
X1714Y1212D01*
X1714Y1208D01*
X1712Y1208D01*
X1712Y1204D01*
X1710Y1204D01*
X1710Y1200D01*
X1708Y1200D01*
X1708Y1196D01*
X1706Y1196D01*
X1706Y1192D01*
X1704Y1192D01*
X1704Y1188D01*
X1702Y1188D01*
X1702Y1184D01*
X1700Y1184D01*
X1700Y1180D01*
X1698Y1180D01*
X1698Y1176D01*
X1696Y1176D01*
X1696Y1172D01*
X1694Y1172D01*
X1694Y1168D01*
X1692Y1168D01*
X1692Y1164D01*
X1690Y1164D01*
X1690Y1160D01*
X1688Y1160D01*
X1688Y1156D01*
X1686Y1156D01*
X1686Y1152D01*
X1684Y1152D01*
X1684Y1148D01*
X1682Y1148D01*
X1682Y1144D01*
X1680Y1144D01*
X1680Y1140D01*
X1678Y1140D01*
X1678Y1136D01*
X1676Y1136D01*
X1676Y1132D01*
X1674Y1132D01*
X1674Y1128D01*
X1672Y1128D01*
X1672Y1124D01*
X1670Y1124D01*
X1670Y1120D01*
X1668Y1120D01*
X1668Y1116D01*
X1666Y1116D01*
X1666Y1112D01*
X1664Y1112D01*
X1664Y1108D01*
X1662Y1108D01*
X1662Y1104D01*
X1660Y1104D01*
X1660Y1100D01*
X1658Y1100D01*
X1658Y1096D01*
X1656Y1096D01*
X1656Y1092D01*
X1654Y1092D01*
X1654Y1088D01*
X1652Y1088D01*
X1652Y1084D01*
X1650Y1084D01*
X1650Y1080D01*
X1648Y1080D01*
X1648Y1076D01*
X1646Y1076D01*
X1646Y1072D01*
X1644Y1072D01*
X1644Y1068D01*
X1642Y1068D01*
X1642Y1064D01*
X1640Y1064D01*
X1640Y1060D01*
X1638Y1060D01*
X1638Y1056D01*
X1636Y1056D01*
X1636Y1052D01*
X1634Y1052D01*
X1634Y1048D01*
X1632Y1048D01*
X1632Y1044D01*
X1630Y1044D01*
X1630Y1040D01*
X1628Y1040D01*
X1628Y1036D01*
X1626Y1036D01*
X1626Y1032D01*
X1624Y1032D01*
X1624Y1028D01*
X1622Y1028D01*
X1622Y1024D01*
X1620Y1024D01*
X1620Y1020D01*
X1618Y1020D01*
X1618Y1016D01*
X1616Y1016D01*
X1616Y1012D01*
X1614Y1012D01*
X1614Y538D01*
X3704Y538D01*
X3704Y540D01*
X3700Y540D01*
X3700Y542D01*
X3698Y542D01*
X3698Y544D01*
X3694Y544D01*
X3694Y546D01*
X3692Y546D01*
X3692Y548D01*
X3690Y548D01*
X3690Y550D01*
X3686Y550D01*
X3686Y552D01*
X3684Y552D01*
X3684Y554D01*
X3682Y554D01*
X3682Y556D01*
X3678Y556D01*
X3678Y558D01*
X3676Y558D01*
X3676Y560D01*
X3674Y560D01*
X3674Y562D01*
X3672Y562D01*
X3672Y564D01*
X3668Y564D01*
X3668Y566D01*
X3666Y566D01*
X3666Y568D01*
X3664Y568D01*
X3664Y570D01*
X3660Y570D01*
X3660Y572D01*
X3658Y572D01*
X3658Y574D01*
X3656Y574D01*
X3656Y576D01*
X3652Y576D01*
X3652Y578D01*
X3650Y578D01*
X3650Y580D01*
X3648Y580D01*
X3648Y582D01*
X3644Y582D01*
X3644Y584D01*
X3642Y584D01*
X3642Y586D01*
X3640Y586D01*
X3640Y588D01*
X3636Y588D01*
X3636Y590D01*
X3634Y590D01*
X3634Y592D01*
X3632Y592D01*
X3632Y594D01*
X3628Y594D01*
X3628Y596D01*
X3626Y596D01*
X3626Y598D01*
X3624Y598D01*
X3624Y600D01*
X3620Y600D01*
X3620Y602D01*
X3618Y602D01*
X3618Y604D01*
X3616Y604D01*
X3616Y606D01*
X3612Y606D01*
X3612Y608D01*
X3610Y608D01*
X3610Y610D01*
X3608Y610D01*
X3608Y612D01*
X3606Y612D01*
X3606Y614D01*
X3602Y614D01*
X3602Y616D01*
X3600Y616D01*
X3600Y618D01*
X3598Y618D01*
X3598Y620D01*
X3594Y620D01*
X3594Y622D01*
X3592Y622D01*
X3592Y624D01*
X3590Y624D01*
X3590Y626D01*
X3586Y626D01*
X3586Y628D01*
X3584Y628D01*
X3584Y630D01*
X3582Y630D01*
X3582Y632D01*
X3578Y632D01*
X3578Y634D01*
X3576Y634D01*
X3576Y636D01*
X3574Y636D01*
X3574Y638D01*
X3570Y638D01*
X3570Y640D01*
X3568Y640D01*
X3568Y642D01*
X3566Y642D01*
X3566Y644D01*
X3562Y644D01*
X3562Y646D01*
X3560Y646D01*
X3560Y648D01*
X3558Y648D01*
X3558Y650D01*
X3554Y650D01*
X3554Y652D01*
X3552Y652D01*
X3552Y654D01*
X3550Y654D01*
X3550Y656D01*
X3546Y656D01*
X3546Y658D01*
X3544Y658D01*
X3544Y660D01*
X3542Y660D01*
X3542Y662D01*
X3540Y662D01*
X3540Y664D01*
X3536Y664D01*
X3536Y666D01*
X3534Y666D01*
X3534Y668D01*
X3532Y668D01*
X3532Y670D01*
X3528Y670D01*
X3528Y672D01*
X3526Y672D01*
X3526Y674D01*
X3524Y674D01*
X3524Y676D01*
X3520Y676D01*
X3520Y678D01*
X3518Y678D01*
X3518Y680D01*
X3516Y680D01*
X3516Y682D01*
X3512Y682D01*
X3512Y684D01*
X3510Y684D01*
X3510Y686D01*
X3508Y686D01*
X3508Y688D01*
X3504Y688D01*
X3504Y690D01*
X3502Y690D01*
X3502Y692D01*
X3500Y692D01*
X3500Y694D01*
X3496Y694D01*
X3496Y696D01*
X3494Y696D01*
X3494Y698D01*
X3492Y698D01*
X3492Y700D01*
X3488Y700D01*
X3488Y702D01*
X3486Y702D01*
X3486Y704D01*
X3484Y704D01*
X3484Y706D01*
X3480Y706D01*
X3480Y708D01*
X3478Y708D01*
X3478Y710D01*
X3476Y710D01*
X3476Y712D01*
X3472Y712D01*
X3472Y714D01*
X3470Y714D01*
X3470Y716D01*
X3468Y716D01*
X3468Y718D01*
X3466Y718D01*
X3466Y720D01*
X3462Y720D01*
X3462Y722D01*
X3460Y722D01*
X3460Y724D01*
X3458Y724D01*
X3458Y726D01*
X3454Y726D01*
X3454Y728D01*
X3452Y728D01*
X3452Y730D01*
X3450Y730D01*
X3450Y732D01*
X3446Y732D01*
X3446Y734D01*
X3444Y734D01*
X3444Y736D01*
X3442Y736D01*
X3442Y738D01*
X3438Y738D01*
X3438Y740D01*
X3436Y740D01*
X3436Y742D01*
X3434Y742D01*
X3434Y744D01*
X3430Y744D01*
X3430Y746D01*
X3428Y746D01*
X3428Y748D01*
X3426Y748D01*
X3426Y750D01*
X3422Y750D01*
X3422Y752D01*
X3420Y752D01*
X3420Y754D01*
X3418Y754D01*
X3418Y756D01*
X3414Y756D01*
X3414Y758D01*
X3412Y758D01*
X3412Y760D01*
X3410Y760D01*
X3410Y762D01*
X3406Y762D01*
X3406Y764D01*
X3404Y764D01*
X3404Y766D01*
X3402Y766D01*
X3402Y768D01*
X3400Y768D01*
X3400Y770D01*
X3396Y770D01*
X3396Y772D01*
X3394Y772D01*
X3394Y774D01*
X3392Y774D01*
X3392Y776D01*
X3388Y776D01*
X3388Y778D01*
X3386Y778D01*
X3386Y780D01*
X3384Y780D01*
X3384Y782D01*
X3380Y782D01*
X3380Y784D01*
X3378Y784D01*
X3378Y786D01*
X3376Y786D01*
X3376Y788D01*
X3372Y788D01*
X3372Y790D01*
X3370Y790D01*
X3370Y792D01*
X3368Y792D01*
X3368Y794D01*
X3364Y794D01*
X3364Y796D01*
X3362Y796D01*
X3362Y798D01*
X3360Y798D01*
X3360Y800D01*
X3356Y800D01*
X3356Y802D01*
X3354Y802D01*
X3354Y804D01*
X3352Y804D01*
X3352Y806D01*
X3348Y806D01*
X3348Y808D01*
X3346Y808D01*
X3346Y810D01*
X3344Y810D01*
X3344Y812D01*
X3340Y812D01*
X3340Y814D01*
X3338Y814D01*
X3338Y816D01*
X3336Y816D01*
X3336Y818D01*
X3334Y818D01*
X3334Y820D01*
X3330Y820D01*
X3330Y822D01*
X3328Y822D01*
X3328Y824D01*
X3326Y824D01*
X3326Y826D01*
X3322Y826D01*
X3322Y828D01*
X3320Y828D01*
X3320Y830D01*
X3318Y830D01*
X3318Y832D01*
X3314Y832D01*
X3314Y834D01*
X3312Y834D01*
X3312Y836D01*
X3310Y836D01*
X3310Y838D01*
X3306Y838D01*
X3306Y840D01*
X3304Y840D01*
X3304Y842D01*
X3302Y842D01*
X3302Y844D01*
X3300Y844D01*
X3300Y846D01*
X3298Y846D01*
X3298Y848D01*
X3296Y848D01*
X3296Y852D01*
X3294Y852D01*
X3294Y860D01*
X3292Y860D01*
X3292Y1326D01*
X1772Y1326D01*
G37*
D02*
G36*
X1614Y538D02*
X1614Y536D01*
X4834Y536D01*
X4834Y538D01*
X1614Y538D01*
G37*
D02*
G36*
X1614Y538D02*
X1614Y536D01*
X4834Y536D01*
X4834Y538D01*
X1614Y538D01*
G37*
D02*
G36*
X1614Y536D02*
X1614Y426D01*
X4834Y426D01*
X4834Y536D01*
X1614Y536D01*
G37*
D02*
G36*
X40Y426D02*
X40Y424D01*
X4834Y424D01*
X4834Y426D01*
X40Y426D01*
G37*
D02*
G36*
X40Y426D02*
X40Y424D01*
X4834Y424D01*
X4834Y426D01*
X40Y426D01*
G37*
D02*
G36*
X40Y424D02*
X40Y252D01*
X4716Y252D01*
X4716Y250D01*
X4732Y250D01*
X4732Y248D01*
X4740Y248D01*
X4740Y246D01*
X4746Y246D01*
X4746Y244D01*
X4752Y244D01*
X4752Y242D01*
X4756Y242D01*
X4756Y240D01*
X4758Y240D01*
X4758Y238D01*
X4762Y238D01*
X4762Y236D01*
X4766Y236D01*
X4766Y234D01*
X4768Y234D01*
X4768Y232D01*
X4770Y232D01*
X4770Y230D01*
X4774Y230D01*
X4774Y228D01*
X4776Y228D01*
X4776Y226D01*
X4778Y226D01*
X4778Y224D01*
X4780Y224D01*
X4780Y222D01*
X4782Y222D01*
X4782Y220D01*
X4784Y220D01*
X4784Y216D01*
X4786Y216D01*
X4786Y214D01*
X4788Y214D01*
X4788Y212D01*
X4790Y212D01*
X4790Y208D01*
X4792Y208D01*
X4792Y206D01*
X4794Y206D01*
X4794Y202D01*
X4796Y202D01*
X4796Y198D01*
X4798Y198D01*
X4798Y192D01*
X4800Y192D01*
X4800Y188D01*
X4802Y188D01*
X4802Y180D01*
X4804Y180D01*
X4804Y164D01*
X4806Y164D01*
X4806Y154D01*
X4804Y154D01*
X4804Y140D01*
X4802Y140D01*
X4802Y132D01*
X4800Y132D01*
X4800Y126D01*
X4798Y126D01*
X4798Y122D01*
X4796Y122D01*
X4796Y118D01*
X4794Y118D01*
X4794Y114D01*
X4792Y114D01*
X4792Y110D01*
X4790Y110D01*
X4790Y108D01*
X4788Y108D01*
X4788Y104D01*
X4786Y104D01*
X4786Y102D01*
X4784Y102D01*
X4784Y100D01*
X4782Y100D01*
X4782Y98D01*
X4780Y98D01*
X4780Y96D01*
X4778Y96D01*
X4778Y94D01*
X4776Y94D01*
X4776Y92D01*
X4774Y92D01*
X4774Y90D01*
X4772Y90D01*
X4772Y88D01*
X4770Y88D01*
X4770Y86D01*
X4766Y86D01*
X4766Y84D01*
X4764Y84D01*
X4764Y82D01*
X4760Y82D01*
X4760Y80D01*
X4758Y80D01*
X4758Y78D01*
X4754Y78D01*
X4754Y76D01*
X4750Y76D01*
X4750Y74D01*
X4744Y74D01*
X4744Y72D01*
X4736Y72D01*
X4736Y70D01*
X4728Y70D01*
X4728Y68D01*
X4834Y68D01*
X4834Y424D01*
X40Y424D01*
G37*
D02*
G36*
X40Y252D02*
X40Y68D01*
X200Y68D01*
X200Y70D01*
X190Y70D01*
X190Y72D01*
X184Y72D01*
X184Y74D01*
X178Y74D01*
X178Y76D01*
X174Y76D01*
X174Y78D01*
X170Y78D01*
X170Y80D01*
X166Y80D01*
X166Y82D01*
X164Y82D01*
X164Y84D01*
X160Y84D01*
X160Y86D01*
X158Y86D01*
X158Y88D01*
X156Y88D01*
X156Y90D01*
X152Y90D01*
X152Y92D01*
X150Y92D01*
X150Y94D01*
X148Y94D01*
X148Y96D01*
X146Y96D01*
X146Y98D01*
X144Y98D01*
X144Y102D01*
X142Y102D01*
X142Y104D01*
X140Y104D01*
X140Y106D01*
X138Y106D01*
X138Y110D01*
X136Y110D01*
X136Y112D01*
X134Y112D01*
X134Y116D01*
X132Y116D01*
X132Y120D01*
X130Y120D01*
X130Y124D01*
X128Y124D01*
X128Y130D01*
X126Y130D01*
X126Y136D01*
X124Y136D01*
X124Y146D01*
X122Y146D01*
X122Y172D01*
X124Y172D01*
X124Y182D01*
X126Y182D01*
X126Y190D01*
X128Y190D01*
X128Y194D01*
X130Y194D01*
X130Y200D01*
X132Y200D01*
X132Y204D01*
X134Y204D01*
X134Y206D01*
X136Y206D01*
X136Y210D01*
X138Y210D01*
X138Y212D01*
X140Y212D01*
X140Y216D01*
X142Y216D01*
X142Y218D01*
X144Y218D01*
X144Y220D01*
X146Y220D01*
X146Y222D01*
X148Y222D01*
X148Y224D01*
X150Y224D01*
X150Y226D01*
X152Y226D01*
X152Y228D01*
X154Y228D01*
X154Y230D01*
X156Y230D01*
X156Y232D01*
X160Y232D01*
X160Y234D01*
X162Y234D01*
X162Y236D01*
X164Y236D01*
X164Y238D01*
X168Y238D01*
X168Y240D01*
X172Y240D01*
X172Y242D01*
X176Y242D01*
X176Y244D01*
X180Y244D01*
X180Y246D01*
X186Y246D01*
X186Y248D01*
X194Y248D01*
X194Y250D01*
X210Y250D01*
X210Y252D01*
X40Y252D01*
G37*
D02*
G36*
X216Y252D02*
X216Y250D01*
X232Y250D01*
X232Y248D01*
X240Y248D01*
X240Y246D01*
X246Y246D01*
X246Y244D01*
X252Y244D01*
X252Y242D01*
X256Y242D01*
X256Y240D01*
X258Y240D01*
X258Y238D01*
X262Y238D01*
X262Y236D01*
X266Y236D01*
X266Y234D01*
X268Y234D01*
X268Y232D01*
X270Y232D01*
X270Y230D01*
X274Y230D01*
X274Y228D01*
X276Y228D01*
X276Y226D01*
X278Y226D01*
X278Y224D01*
X280Y224D01*
X280Y222D01*
X282Y222D01*
X282Y220D01*
X284Y220D01*
X284Y216D01*
X286Y216D01*
X286Y214D01*
X288Y214D01*
X288Y212D01*
X290Y212D01*
X290Y208D01*
X292Y208D01*
X292Y206D01*
X294Y206D01*
X294Y202D01*
X296Y202D01*
X296Y198D01*
X298Y198D01*
X298Y192D01*
X300Y192D01*
X300Y188D01*
X302Y188D01*
X302Y180D01*
X304Y180D01*
X304Y164D01*
X306Y164D01*
X306Y154D01*
X304Y154D01*
X304Y140D01*
X302Y140D01*
X302Y132D01*
X300Y132D01*
X300Y126D01*
X298Y126D01*
X298Y122D01*
X296Y122D01*
X296Y118D01*
X294Y118D01*
X294Y114D01*
X292Y114D01*
X292Y110D01*
X290Y110D01*
X290Y108D01*
X288Y108D01*
X288Y104D01*
X286Y104D01*
X286Y102D01*
X284Y102D01*
X284Y100D01*
X282Y100D01*
X282Y98D01*
X280Y98D01*
X280Y96D01*
X278Y96D01*
X278Y94D01*
X276Y94D01*
X276Y92D01*
X274Y92D01*
X274Y90D01*
X272Y90D01*
X272Y88D01*
X270Y88D01*
X270Y86D01*
X266Y86D01*
X266Y84D01*
X264Y84D01*
X264Y82D01*
X260Y82D01*
X260Y80D01*
X258Y80D01*
X258Y78D01*
X254Y78D01*
X254Y76D01*
X250Y76D01*
X250Y74D01*
X244Y74D01*
X244Y72D01*
X236Y72D01*
X236Y70D01*
X228Y70D01*
X228Y68D01*
X4700Y68D01*
X4700Y70D01*
X4690Y70D01*
X4690Y72D01*
X4684Y72D01*
X4684Y74D01*
X4678Y74D01*
X4678Y76D01*
X4674Y76D01*
X4674Y78D01*
X4670Y78D01*
X4670Y80D01*
X4666Y80D01*
X4666Y82D01*
X4664Y82D01*
X4664Y84D01*
X4660Y84D01*
X4660Y86D01*
X4658Y86D01*
X4658Y88D01*
X4656Y88D01*
X4656Y90D01*
X4652Y90D01*
X4652Y92D01*
X4650Y92D01*
X4650Y94D01*
X4648Y94D01*
X4648Y96D01*
X4646Y96D01*
X4646Y98D01*
X4644Y98D01*
X4644Y102D01*
X4642Y102D01*
X4642Y104D01*
X4640Y104D01*
X4640Y106D01*
X4638Y106D01*
X4638Y110D01*
X4636Y110D01*
X4636Y112D01*
X4634Y112D01*
X4634Y116D01*
X4632Y116D01*
X4632Y120D01*
X4630Y120D01*
X4630Y124D01*
X4628Y124D01*
X4628Y130D01*
X4626Y130D01*
X4626Y136D01*
X4624Y136D01*
X4624Y146D01*
X4622Y146D01*
X4622Y172D01*
X4624Y172D01*
X4624Y182D01*
X4626Y182D01*
X4626Y190D01*
X4628Y190D01*
X4628Y194D01*
X4630Y194D01*
X4630Y200D01*
X4632Y200D01*
X4632Y204D01*
X4634Y204D01*
X4634Y206D01*
X4636Y206D01*
X4636Y210D01*
X4638Y210D01*
X4638Y212D01*
X4640Y212D01*
X4640Y216D01*
X4642Y216D01*
X4642Y218D01*
X4644Y218D01*
X4644Y220D01*
X4646Y220D01*
X4646Y222D01*
X4648Y222D01*
X4648Y224D01*
X4650Y224D01*
X4650Y226D01*
X4652Y226D01*
X4652Y228D01*
X4654Y228D01*
X4654Y230D01*
X4656Y230D01*
X4656Y232D01*
X4660Y232D01*
X4660Y234D01*
X4662Y234D01*
X4662Y236D01*
X4664Y236D01*
X4664Y238D01*
X4668Y238D01*
X4668Y240D01*
X4672Y240D01*
X4672Y242D01*
X4676Y242D01*
X4676Y244D01*
X4680Y244D01*
X4680Y246D01*
X4686Y246D01*
X4686Y248D01*
X4694Y248D01*
X4694Y250D01*
X4710Y250D01*
X4710Y252D01*
X216Y252D01*
G37*
D02*
G36*
X40Y68D02*
X40Y66D01*
X4834Y66D01*
X4834Y68D01*
X40Y68D01*
G37*
D02*
G36*
X40Y68D02*
X40Y66D01*
X4834Y66D01*
X4834Y68D01*
X40Y68D01*
G37*
D02*
G36*
X40Y68D02*
X40Y66D01*
X4834Y66D01*
X4834Y68D01*
X40Y68D01*
G37*
D02*
G36*
X40Y66D02*
X40Y42D01*
X4834Y42D01*
X4834Y66D01*
X40Y66D01*
G37*
D02*
G36*
X200Y3402D02*
X200Y3400D01*
X194Y3400D01*
X194Y3398D01*
X190Y3398D01*
X190Y3396D01*
X188Y3396D01*
X188Y3394D01*
X186Y3394D01*
X186Y3392D01*
X182Y3392D01*
X182Y3390D01*
X180Y3390D01*
X180Y3386D01*
X178Y3386D01*
X178Y3384D01*
X176Y3384D01*
X176Y3380D01*
X174Y3380D01*
X174Y3376D01*
X172Y3376D01*
X172Y3370D01*
X170Y3370D01*
X170Y3348D01*
X172Y3348D01*
X172Y3342D01*
X174Y3342D01*
X174Y3338D01*
X176Y3338D01*
X176Y3334D01*
X178Y3334D01*
X178Y3332D01*
X180Y3332D01*
X180Y3330D01*
X182Y3330D01*
X182Y3328D01*
X184Y3328D01*
X184Y3326D01*
X186Y3326D01*
X186Y3324D01*
X188Y3324D01*
X188Y3322D01*
X192Y3322D01*
X192Y3320D01*
X196Y3320D01*
X196Y3318D01*
X202Y3318D01*
X202Y3316D01*
X226Y3316D01*
X226Y3318D01*
X232Y3318D01*
X232Y3320D01*
X234Y3320D01*
X234Y3322D01*
X238Y3322D01*
X238Y3324D01*
X240Y3324D01*
X240Y3326D01*
X244Y3326D01*
X244Y3328D01*
X246Y3328D01*
X246Y3330D01*
X248Y3330D01*
X248Y3334D01*
X250Y3334D01*
X250Y3336D01*
X252Y3336D01*
X252Y3340D01*
X254Y3340D01*
X254Y3344D01*
X256Y3344D01*
X256Y3374D01*
X254Y3374D01*
X254Y3380D01*
X252Y3380D01*
X252Y3382D01*
X250Y3382D01*
X250Y3386D01*
X248Y3386D01*
X248Y3388D01*
X246Y3388D01*
X246Y3390D01*
X244Y3390D01*
X244Y3392D01*
X242Y3392D01*
X242Y3394D01*
X240Y3394D01*
X240Y3396D01*
X236Y3396D01*
X236Y3398D01*
X232Y3398D01*
X232Y3400D01*
X228Y3400D01*
X228Y3402D01*
X200Y3402D01*
G37*
D02*
G36*
X4700Y3402D02*
X4700Y3400D01*
X4694Y3400D01*
X4694Y3398D01*
X4690Y3398D01*
X4690Y3396D01*
X4688Y3396D01*
X4688Y3394D01*
X4686Y3394D01*
X4686Y3392D01*
X4682Y3392D01*
X4682Y3390D01*
X4680Y3390D01*
X4680Y3386D01*
X4678Y3386D01*
X4678Y3384D01*
X4676Y3384D01*
X4676Y3380D01*
X4674Y3380D01*
X4674Y3376D01*
X4672Y3376D01*
X4672Y3370D01*
X4670Y3370D01*
X4670Y3348D01*
X4672Y3348D01*
X4672Y3342D01*
X4674Y3342D01*
X4674Y3338D01*
X4676Y3338D01*
X4676Y3334D01*
X4678Y3334D01*
X4678Y3332D01*
X4680Y3332D01*
X4680Y3330D01*
X4682Y3330D01*
X4682Y3328D01*
X4684Y3328D01*
X4684Y3326D01*
X4686Y3326D01*
X4686Y3324D01*
X4688Y3324D01*
X4688Y3322D01*
X4692Y3322D01*
X4692Y3320D01*
X4696Y3320D01*
X4696Y3318D01*
X4702Y3318D01*
X4702Y3316D01*
X4726Y3316D01*
X4726Y3318D01*
X4732Y3318D01*
X4732Y3320D01*
X4734Y3320D01*
X4734Y3322D01*
X4738Y3322D01*
X4738Y3324D01*
X4740Y3324D01*
X4740Y3326D01*
X4744Y3326D01*
X4744Y3328D01*
X4746Y3328D01*
X4746Y3330D01*
X4748Y3330D01*
X4748Y3334D01*
X4750Y3334D01*
X4750Y3336D01*
X4752Y3336D01*
X4752Y3340D01*
X4754Y3340D01*
X4754Y3344D01*
X4756Y3344D01*
X4756Y3374D01*
X4754Y3374D01*
X4754Y3380D01*
X4752Y3380D01*
X4752Y3382D01*
X4750Y3382D01*
X4750Y3386D01*
X4748Y3386D01*
X4748Y3388D01*
X4746Y3388D01*
X4746Y3390D01*
X4744Y3390D01*
X4744Y3392D01*
X4742Y3392D01*
X4742Y3394D01*
X4740Y3394D01*
X4740Y3396D01*
X4736Y3396D01*
X4736Y3398D01*
X4732Y3398D01*
X4732Y3400D01*
X4728Y3400D01*
X4728Y3402D01*
X4700Y3402D01*
G37*
D02*
G36*
X1374Y3338D02*
X1374Y3336D01*
X630Y3336D01*
X630Y3332D01*
X628Y3332D01*
X628Y3324D01*
X626Y3324D01*
X626Y3314D01*
X624Y3314D01*
X624Y3306D01*
X622Y3306D01*
X622Y3296D01*
X620Y3296D01*
X620Y3288D01*
X618Y3288D01*
X618Y3278D01*
X616Y3278D01*
X616Y3270D01*
X614Y3270D01*
X614Y3260D01*
X612Y3260D01*
X612Y3252D01*
X610Y3252D01*
X610Y3242D01*
X608Y3242D01*
X608Y3234D01*
X606Y3234D01*
X606Y3224D01*
X604Y3224D01*
X604Y3216D01*
X602Y3216D01*
X602Y3206D01*
X600Y3206D01*
X600Y3196D01*
X598Y3196D01*
X598Y3188D01*
X596Y3188D01*
X596Y3178D01*
X594Y3178D01*
X594Y3170D01*
X592Y3170D01*
X592Y3160D01*
X590Y3160D01*
X590Y3152D01*
X588Y3152D01*
X588Y3142D01*
X586Y3142D01*
X586Y3134D01*
X584Y3134D01*
X584Y3124D01*
X582Y3124D01*
X582Y3116D01*
X580Y3116D01*
X580Y3106D01*
X578Y3106D01*
X578Y3098D01*
X576Y3098D01*
X576Y3088D01*
X574Y3088D01*
X574Y3080D01*
X572Y3080D01*
X572Y3070D01*
X570Y3070D01*
X570Y3060D01*
X568Y3060D01*
X568Y3052D01*
X566Y3052D01*
X566Y3042D01*
X564Y3042D01*
X564Y3034D01*
X562Y3034D01*
X562Y3024D01*
X560Y3024D01*
X560Y3016D01*
X558Y3016D01*
X558Y3006D01*
X556Y3006D01*
X556Y2998D01*
X554Y2998D01*
X554Y2988D01*
X552Y2988D01*
X552Y2980D01*
X550Y2980D01*
X550Y2970D01*
X548Y2970D01*
X548Y2962D01*
X546Y2962D01*
X546Y2952D01*
X544Y2952D01*
X544Y2944D01*
X542Y2944D01*
X542Y2934D01*
X540Y2934D01*
X540Y2926D01*
X538Y2926D01*
X538Y2916D01*
X536Y2916D01*
X536Y2906D01*
X534Y2906D01*
X534Y2898D01*
X532Y2898D01*
X532Y2888D01*
X530Y2888D01*
X530Y2880D01*
X528Y2880D01*
X528Y2870D01*
X526Y2870D01*
X526Y2862D01*
X524Y2862D01*
X524Y2852D01*
X522Y2852D01*
X522Y2844D01*
X520Y2844D01*
X520Y2834D01*
X518Y2834D01*
X518Y2826D01*
X516Y2826D01*
X516Y2816D01*
X514Y2816D01*
X514Y2808D01*
X512Y2808D01*
X512Y2798D01*
X510Y2798D01*
X510Y2790D01*
X508Y2790D01*
X508Y2780D01*
X506Y2780D01*
X506Y2772D01*
X504Y2772D01*
X504Y2762D01*
X502Y2762D01*
X502Y2752D01*
X500Y2752D01*
X500Y2744D01*
X498Y2744D01*
X498Y2734D01*
X496Y2734D01*
X496Y2726D01*
X494Y2726D01*
X494Y2716D01*
X492Y2716D01*
X492Y2708D01*
X490Y2708D01*
X490Y2698D01*
X488Y2698D01*
X488Y2690D01*
X486Y2690D01*
X486Y2680D01*
X484Y2680D01*
X484Y2672D01*
X482Y2672D01*
X482Y2662D01*
X480Y2662D01*
X480Y2654D01*
X478Y2654D01*
X478Y2644D01*
X476Y2644D01*
X476Y2636D01*
X474Y2636D01*
X474Y2626D01*
X472Y2626D01*
X472Y2618D01*
X470Y2618D01*
X470Y2608D01*
X468Y2608D01*
X468Y2598D01*
X466Y2598D01*
X466Y2590D01*
X464Y2590D01*
X464Y2580D01*
X462Y2580D01*
X462Y2572D01*
X460Y2572D01*
X460Y2562D01*
X458Y2562D01*
X458Y2554D01*
X456Y2554D01*
X456Y2544D01*
X454Y2544D01*
X454Y2536D01*
X452Y2536D01*
X452Y2526D01*
X450Y2526D01*
X450Y2518D01*
X448Y2518D01*
X448Y2508D01*
X446Y2508D01*
X446Y2500D01*
X444Y2500D01*
X444Y2490D01*
X442Y2490D01*
X442Y2482D01*
X440Y2482D01*
X440Y2472D01*
X438Y2472D01*
X438Y2462D01*
X436Y2462D01*
X436Y2454D01*
X434Y2454D01*
X434Y2444D01*
X432Y2444D01*
X432Y2436D01*
X430Y2436D01*
X430Y2426D01*
X428Y2426D01*
X428Y2418D01*
X426Y2418D01*
X426Y2408D01*
X424Y2408D01*
X424Y2400D01*
X422Y2400D01*
X422Y2390D01*
X420Y2390D01*
X420Y2382D01*
X418Y2382D01*
X418Y2372D01*
X416Y2372D01*
X416Y2364D01*
X414Y2364D01*
X414Y2354D01*
X412Y2354D01*
X412Y2346D01*
X410Y2346D01*
X410Y2336D01*
X408Y2336D01*
X408Y2328D01*
X406Y2328D01*
X406Y2318D01*
X404Y2318D01*
X404Y2308D01*
X402Y2308D01*
X402Y2300D01*
X400Y2300D01*
X400Y2290D01*
X398Y2290D01*
X398Y2282D01*
X396Y2282D01*
X396Y2272D01*
X394Y2272D01*
X394Y2264D01*
X392Y2264D01*
X392Y2254D01*
X390Y2254D01*
X390Y2246D01*
X388Y2246D01*
X388Y2236D01*
X386Y2236D01*
X386Y2228D01*
X384Y2228D01*
X384Y2218D01*
X382Y2218D01*
X382Y2210D01*
X380Y2210D01*
X380Y2200D01*
X378Y2200D01*
X378Y2192D01*
X376Y2192D01*
X376Y2182D01*
X374Y2182D01*
X374Y2174D01*
X372Y2174D01*
X372Y2164D01*
X370Y2164D01*
X370Y2154D01*
X368Y2154D01*
X368Y2146D01*
X366Y2146D01*
X366Y2136D01*
X364Y2136D01*
X364Y2128D01*
X362Y2128D01*
X362Y2118D01*
X360Y2118D01*
X360Y2110D01*
X358Y2110D01*
X358Y2100D01*
X356Y2100D01*
X356Y2092D01*
X354Y2092D01*
X354Y2082D01*
X352Y2082D01*
X352Y2074D01*
X350Y2074D01*
X350Y2064D01*
X348Y2064D01*
X348Y2056D01*
X346Y2056D01*
X346Y2046D01*
X344Y2046D01*
X344Y2038D01*
X342Y2038D01*
X342Y2028D01*
X340Y2028D01*
X340Y2020D01*
X338Y2020D01*
X338Y2010D01*
X336Y2010D01*
X336Y2000D01*
X334Y2000D01*
X334Y1992D01*
X332Y1992D01*
X332Y1982D01*
X330Y1982D01*
X330Y1974D01*
X328Y1974D01*
X328Y1964D01*
X326Y1964D01*
X326Y1956D01*
X324Y1956D01*
X324Y1946D01*
X322Y1946D01*
X322Y1938D01*
X320Y1938D01*
X320Y1928D01*
X318Y1928D01*
X318Y1920D01*
X316Y1920D01*
X316Y1910D01*
X314Y1910D01*
X314Y1902D01*
X312Y1902D01*
X312Y1892D01*
X310Y1892D01*
X310Y1884D01*
X308Y1884D01*
X308Y1874D01*
X306Y1874D01*
X306Y1866D01*
X304Y1866D01*
X304Y1856D01*
X302Y1856D01*
X302Y1846D01*
X300Y1846D01*
X300Y1838D01*
X298Y1838D01*
X298Y1828D01*
X296Y1828D01*
X296Y1820D01*
X294Y1820D01*
X294Y1810D01*
X292Y1810D01*
X292Y1802D01*
X290Y1802D01*
X290Y1792D01*
X288Y1792D01*
X288Y1784D01*
X286Y1784D01*
X286Y1774D01*
X284Y1774D01*
X284Y1766D01*
X282Y1766D01*
X282Y1756D01*
X280Y1756D01*
X280Y1748D01*
X278Y1748D01*
X278Y1738D01*
X276Y1738D01*
X276Y1730D01*
X274Y1730D01*
X274Y1720D01*
X272Y1720D01*
X272Y1710D01*
X270Y1710D01*
X270Y1702D01*
X268Y1702D01*
X268Y1692D01*
X266Y1692D01*
X266Y1684D01*
X264Y1684D01*
X264Y1674D01*
X262Y1674D01*
X262Y1666D01*
X260Y1666D01*
X260Y1656D01*
X258Y1656D01*
X258Y1648D01*
X256Y1648D01*
X256Y1638D01*
X254Y1638D01*
X254Y1630D01*
X252Y1630D01*
X252Y1620D01*
X250Y1620D01*
X250Y1612D01*
X248Y1612D01*
X248Y1602D01*
X246Y1602D01*
X246Y1594D01*
X244Y1594D01*
X244Y1584D01*
X242Y1584D01*
X242Y1576D01*
X240Y1576D01*
X240Y1566D01*
X238Y1566D01*
X238Y1556D01*
X236Y1556D01*
X236Y880D01*
X266Y880D01*
X266Y878D01*
X296Y878D01*
X296Y876D01*
X326Y876D01*
X326Y874D01*
X356Y874D01*
X356Y872D01*
X388Y872D01*
X388Y1552D01*
X580Y1552D01*
X580Y1560D01*
X582Y1560D01*
X582Y1570D01*
X584Y1570D01*
X584Y1578D01*
X586Y1578D01*
X586Y1588D01*
X588Y1588D01*
X588Y1598D01*
X590Y1598D01*
X590Y1608D01*
X592Y1608D01*
X592Y1618D01*
X594Y1618D01*
X594Y1628D01*
X596Y1628D01*
X596Y1636D01*
X598Y1636D01*
X598Y1646D01*
X600Y1646D01*
X600Y1656D01*
X602Y1656D01*
X602Y1666D01*
X604Y1666D01*
X604Y1676D01*
X606Y1676D01*
X606Y1686D01*
X608Y1686D01*
X608Y1694D01*
X610Y1694D01*
X610Y1704D01*
X612Y1704D01*
X612Y1714D01*
X614Y1714D01*
X614Y1724D01*
X616Y1724D01*
X616Y1734D01*
X618Y1734D01*
X618Y1744D01*
X620Y1744D01*
X620Y1752D01*
X622Y1752D01*
X622Y1762D01*
X624Y1762D01*
X624Y1772D01*
X626Y1772D01*
X626Y1782D01*
X628Y1782D01*
X628Y1792D01*
X630Y1792D01*
X630Y1802D01*
X632Y1802D01*
X632Y1812D01*
X634Y1812D01*
X634Y1820D01*
X636Y1820D01*
X636Y1830D01*
X638Y1830D01*
X638Y1840D01*
X640Y1840D01*
X640Y1850D01*
X642Y1850D01*
X642Y1860D01*
X644Y1860D01*
X644Y1870D01*
X646Y1870D01*
X646Y1878D01*
X648Y1878D01*
X648Y1888D01*
X650Y1888D01*
X650Y1898D01*
X652Y1898D01*
X652Y1908D01*
X654Y1908D01*
X654Y1918D01*
X656Y1918D01*
X656Y1928D01*
X658Y1928D01*
X658Y1936D01*
X660Y1936D01*
X660Y1946D01*
X662Y1946D01*
X662Y1956D01*
X664Y1956D01*
X664Y1966D01*
X666Y1966D01*
X666Y1976D01*
X668Y1976D01*
X668Y1986D01*
X670Y1986D01*
X670Y1994D01*
X672Y1994D01*
X672Y2004D01*
X674Y2004D01*
X674Y2014D01*
X676Y2014D01*
X676Y2024D01*
X678Y2024D01*
X678Y2034D01*
X680Y2034D01*
X680Y2044D01*
X682Y2044D01*
X682Y2052D01*
X684Y2052D01*
X684Y2062D01*
X686Y2062D01*
X686Y2072D01*
X688Y2072D01*
X688Y2082D01*
X690Y2082D01*
X690Y2092D01*
X692Y2092D01*
X692Y2102D01*
X694Y2102D01*
X694Y2110D01*
X696Y2110D01*
X696Y2120D01*
X698Y2120D01*
X698Y2130D01*
X700Y2130D01*
X700Y2140D01*
X702Y2140D01*
X702Y2150D01*
X704Y2150D01*
X704Y2160D01*
X706Y2160D01*
X706Y2170D01*
X708Y2170D01*
X708Y2178D01*
X710Y2178D01*
X710Y2188D01*
X712Y2188D01*
X712Y2198D01*
X714Y2198D01*
X714Y2208D01*
X716Y2208D01*
X716Y2218D01*
X718Y2218D01*
X718Y2228D01*
X720Y2228D01*
X720Y2236D01*
X722Y2236D01*
X722Y2246D01*
X724Y2246D01*
X724Y2256D01*
X726Y2256D01*
X726Y2266D01*
X728Y2266D01*
X728Y2276D01*
X730Y2276D01*
X730Y2286D01*
X732Y2286D01*
X732Y2294D01*
X734Y2294D01*
X734Y2304D01*
X736Y2304D01*
X736Y2314D01*
X738Y2314D01*
X738Y2324D01*
X740Y2324D01*
X740Y2334D01*
X742Y2334D01*
X742Y2344D01*
X744Y2344D01*
X744Y2352D01*
X746Y2352D01*
X746Y2362D01*
X748Y2362D01*
X748Y2372D01*
X750Y2372D01*
X750Y2382D01*
X752Y2382D01*
X752Y2392D01*
X754Y2392D01*
X754Y2402D01*
X756Y2402D01*
X756Y2410D01*
X758Y2410D01*
X758Y2420D01*
X760Y2420D01*
X760Y2430D01*
X762Y2430D01*
X762Y2440D01*
X764Y2440D01*
X764Y2450D01*
X766Y2450D01*
X766Y2460D01*
X768Y2460D01*
X768Y2468D01*
X770Y2468D01*
X770Y2478D01*
X772Y2478D01*
X772Y2488D01*
X774Y2488D01*
X774Y2498D01*
X776Y2498D01*
X776Y2508D01*
X778Y2508D01*
X778Y2518D01*
X780Y2518D01*
X780Y2528D01*
X782Y2528D01*
X782Y2536D01*
X784Y2536D01*
X784Y2546D01*
X786Y2546D01*
X786Y2556D01*
X788Y2556D01*
X788Y2566D01*
X790Y2566D01*
X790Y2576D01*
X792Y2576D01*
X792Y2586D01*
X794Y2586D01*
X794Y2594D01*
X796Y2594D01*
X796Y2604D01*
X798Y2604D01*
X798Y2614D01*
X800Y2614D01*
X800Y2624D01*
X802Y2624D01*
X802Y2634D01*
X804Y2634D01*
X804Y2644D01*
X806Y2644D01*
X806Y2652D01*
X808Y2652D01*
X808Y2662D01*
X810Y2662D01*
X810Y2672D01*
X812Y2672D01*
X812Y2682D01*
X814Y2682D01*
X814Y2692D01*
X816Y2692D01*
X816Y2702D01*
X818Y2702D01*
X818Y2710D01*
X820Y2710D01*
X820Y2720D01*
X822Y2720D01*
X822Y2730D01*
X824Y2730D01*
X824Y2740D01*
X826Y2740D01*
X826Y2750D01*
X828Y2750D01*
X828Y2760D01*
X830Y2760D01*
X830Y2768D01*
X832Y2768D01*
X832Y2778D01*
X834Y2778D01*
X834Y2788D01*
X836Y2788D01*
X836Y2798D01*
X838Y2798D01*
X838Y2808D01*
X840Y2808D01*
X840Y2818D01*
X842Y2818D01*
X842Y2826D01*
X844Y2826D01*
X844Y2836D01*
X846Y2836D01*
X846Y2846D01*
X848Y2846D01*
X848Y2856D01*
X850Y2856D01*
X850Y2866D01*
X852Y2866D01*
X852Y2876D01*
X854Y2876D01*
X854Y2884D01*
X856Y2884D01*
X856Y2894D01*
X858Y2894D01*
X858Y2904D01*
X860Y2904D01*
X860Y2914D01*
X862Y2914D01*
X862Y2924D01*
X864Y2924D01*
X864Y2934D01*
X866Y2934D01*
X866Y2944D01*
X868Y2944D01*
X868Y2952D01*
X870Y2952D01*
X870Y2962D01*
X872Y2962D01*
X872Y2972D01*
X874Y2972D01*
X874Y2982D01*
X876Y2982D01*
X876Y2992D01*
X878Y2992D01*
X878Y3002D01*
X880Y3002D01*
X880Y3010D01*
X882Y3010D01*
X882Y3020D01*
X884Y3020D01*
X884Y3030D01*
X886Y3030D01*
X886Y3040D01*
X888Y3040D01*
X888Y3050D01*
X890Y3050D01*
X890Y3060D01*
X892Y3060D01*
X892Y3066D01*
X894Y3066D01*
X894Y3070D01*
X896Y3070D01*
X896Y3072D01*
X898Y3072D01*
X898Y3074D01*
X900Y3074D01*
X900Y3076D01*
X904Y3076D01*
X904Y3078D01*
X908Y3078D01*
X908Y3080D01*
X1816Y3080D01*
X1816Y3082D01*
X1924Y3082D01*
X1924Y3338D01*
X1374Y3338D01*
G37*
D02*
G36*
X1824Y3038D02*
X1824Y3036D01*
X930Y3036D01*
X930Y3026D01*
X928Y3026D01*
X928Y3016D01*
X926Y3016D01*
X926Y3006D01*
X924Y3006D01*
X924Y2996D01*
X922Y2996D01*
X922Y2986D01*
X920Y2986D01*
X920Y2984D01*
X1850Y2984D01*
X1850Y2982D01*
X1924Y2982D01*
X1924Y3038D01*
X1824Y3038D01*
G37*
D02*
G36*
X920Y2984D02*
X920Y2978D01*
X918Y2978D01*
X918Y2968D01*
X916Y2968D01*
X916Y2958D01*
X914Y2958D01*
X914Y2948D01*
X912Y2948D01*
X912Y2938D01*
X910Y2938D01*
X910Y2928D01*
X908Y2928D01*
X908Y2920D01*
X906Y2920D01*
X906Y2910D01*
X904Y2910D01*
X904Y2900D01*
X902Y2900D01*
X902Y2890D01*
X900Y2890D01*
X900Y2880D01*
X1422Y2880D01*
X1422Y2878D01*
X1426Y2878D01*
X1426Y2876D01*
X1428Y2876D01*
X1428Y2874D01*
X1430Y2874D01*
X1430Y2872D01*
X1432Y2872D01*
X1432Y2868D01*
X1434Y2868D01*
X1434Y2864D01*
X1436Y2864D01*
X1436Y2860D01*
X1438Y2860D01*
X1438Y2856D01*
X1440Y2856D01*
X1440Y2852D01*
X1442Y2852D01*
X1442Y2848D01*
X1444Y2848D01*
X1444Y2844D01*
X1446Y2844D01*
X1446Y2840D01*
X1448Y2840D01*
X1448Y2836D01*
X1450Y2836D01*
X1450Y2832D01*
X1452Y2832D01*
X1452Y2828D01*
X1454Y2828D01*
X1454Y2824D01*
X1456Y2824D01*
X1456Y2820D01*
X1458Y2820D01*
X1458Y2816D01*
X1718Y2816D01*
X1718Y2570D01*
X1738Y2570D01*
X1738Y2584D01*
X1740Y2584D01*
X1740Y2598D01*
X1742Y2598D01*
X1742Y2612D01*
X1744Y2612D01*
X1744Y2624D01*
X1746Y2624D01*
X1746Y2638D01*
X1748Y2638D01*
X1748Y2652D01*
X1750Y2652D01*
X1750Y2666D01*
X1752Y2666D01*
X1752Y2680D01*
X1754Y2680D01*
X1754Y2694D01*
X1756Y2694D01*
X1756Y2708D01*
X1758Y2708D01*
X1758Y2722D01*
X1760Y2722D01*
X1760Y2736D01*
X1762Y2736D01*
X1762Y2748D01*
X1764Y2748D01*
X1764Y2762D01*
X1766Y2762D01*
X1766Y2776D01*
X1768Y2776D01*
X1768Y2790D01*
X1770Y2790D01*
X1770Y2804D01*
X1772Y2804D01*
X1772Y2818D01*
X1774Y2818D01*
X1774Y2832D01*
X1776Y2832D01*
X1776Y2846D01*
X1778Y2846D01*
X1778Y2860D01*
X1780Y2860D01*
X1780Y2872D01*
X1782Y2872D01*
X1782Y2886D01*
X1784Y2886D01*
X1784Y2900D01*
X1786Y2900D01*
X1786Y2914D01*
X1788Y2914D01*
X1788Y2928D01*
X1790Y2928D01*
X1790Y2942D01*
X1792Y2942D01*
X1792Y2956D01*
X1794Y2956D01*
X1794Y2968D01*
X1796Y2968D01*
X1796Y2972D01*
X1798Y2972D01*
X1798Y2974D01*
X1800Y2974D01*
X1800Y2978D01*
X1804Y2978D01*
X1804Y2980D01*
X1806Y2980D01*
X1806Y2982D01*
X1814Y2982D01*
X1814Y2984D01*
X920Y2984D01*
G37*
D02*
G36*
X898Y2880D02*
X898Y2870D01*
X896Y2870D01*
X896Y2862D01*
X894Y2862D01*
X894Y2852D01*
X892Y2852D01*
X892Y2842D01*
X890Y2842D01*
X890Y2832D01*
X888Y2832D01*
X888Y2822D01*
X886Y2822D01*
X886Y2812D01*
X884Y2812D01*
X884Y2802D01*
X882Y2802D01*
X882Y2794D01*
X880Y2794D01*
X880Y2784D01*
X878Y2784D01*
X878Y2774D01*
X876Y2774D01*
X876Y2764D01*
X874Y2764D01*
X874Y2754D01*
X872Y2754D01*
X872Y2744D01*
X870Y2744D01*
X870Y2736D01*
X868Y2736D01*
X868Y2726D01*
X866Y2726D01*
X866Y2716D01*
X864Y2716D01*
X864Y2706D01*
X862Y2706D01*
X862Y2696D01*
X860Y2696D01*
X860Y2686D01*
X858Y2686D01*
X858Y2678D01*
X856Y2678D01*
X856Y2668D01*
X854Y2668D01*
X854Y2658D01*
X852Y2658D01*
X852Y2648D01*
X850Y2648D01*
X850Y2638D01*
X848Y2638D01*
X848Y2628D01*
X846Y2628D01*
X846Y2620D01*
X844Y2620D01*
X844Y2610D01*
X842Y2610D01*
X842Y2600D01*
X840Y2600D01*
X840Y2590D01*
X838Y2590D01*
X838Y2580D01*
X836Y2580D01*
X836Y2570D01*
X834Y2570D01*
X834Y2562D01*
X832Y2562D01*
X832Y2552D01*
X830Y2552D01*
X830Y2542D01*
X828Y2542D01*
X828Y2532D01*
X826Y2532D01*
X826Y2522D01*
X824Y2522D01*
X824Y2512D01*
X822Y2512D01*
X822Y2504D01*
X820Y2504D01*
X820Y2494D01*
X818Y2494D01*
X818Y2484D01*
X816Y2484D01*
X816Y2474D01*
X814Y2474D01*
X814Y2464D01*
X812Y2464D01*
X812Y2454D01*
X810Y2454D01*
X810Y2446D01*
X808Y2446D01*
X808Y2436D01*
X806Y2436D01*
X806Y2426D01*
X804Y2426D01*
X804Y2416D01*
X802Y2416D01*
X802Y2406D01*
X800Y2406D01*
X800Y2396D01*
X798Y2396D01*
X798Y2386D01*
X796Y2386D01*
X796Y2378D01*
X794Y2378D01*
X794Y2368D01*
X792Y2368D01*
X792Y2358D01*
X790Y2358D01*
X790Y2348D01*
X788Y2348D01*
X788Y2338D01*
X786Y2338D01*
X786Y2328D01*
X784Y2328D01*
X784Y2320D01*
X782Y2320D01*
X782Y2310D01*
X780Y2310D01*
X780Y2300D01*
X778Y2300D01*
X778Y2290D01*
X776Y2290D01*
X776Y2280D01*
X774Y2280D01*
X774Y2270D01*
X772Y2270D01*
X772Y2262D01*
X770Y2262D01*
X770Y2252D01*
X768Y2252D01*
X768Y2242D01*
X766Y2242D01*
X766Y2232D01*
X764Y2232D01*
X764Y2222D01*
X762Y2222D01*
X762Y2212D01*
X760Y2212D01*
X760Y2204D01*
X758Y2204D01*
X758Y2194D01*
X756Y2194D01*
X756Y2184D01*
X754Y2184D01*
X754Y2174D01*
X752Y2174D01*
X752Y2164D01*
X750Y2164D01*
X750Y2154D01*
X748Y2154D01*
X748Y2146D01*
X746Y2146D01*
X746Y2136D01*
X744Y2136D01*
X744Y2126D01*
X742Y2126D01*
X742Y2116D01*
X740Y2116D01*
X740Y2106D01*
X738Y2106D01*
X738Y2096D01*
X736Y2096D01*
X736Y2088D01*
X734Y2088D01*
X734Y2078D01*
X732Y2078D01*
X732Y2068D01*
X730Y2068D01*
X730Y2058D01*
X728Y2058D01*
X728Y2048D01*
X726Y2048D01*
X726Y2038D01*
X724Y2038D01*
X724Y2028D01*
X722Y2028D01*
X722Y2026D01*
X984Y2026D01*
X984Y2672D01*
X1196Y2672D01*
X1196Y2674D01*
X1198Y2674D01*
X1198Y2676D01*
X1200Y2676D01*
X1200Y2678D01*
X1202Y2678D01*
X1202Y2680D01*
X1204Y2680D01*
X1204Y2682D01*
X1206Y2682D01*
X1206Y2684D01*
X1208Y2684D01*
X1208Y2686D01*
X1210Y2686D01*
X1210Y2688D01*
X1212Y2688D01*
X1212Y2690D01*
X1214Y2690D01*
X1214Y2692D01*
X1216Y2692D01*
X1216Y2694D01*
X1218Y2694D01*
X1218Y2696D01*
X1220Y2696D01*
X1220Y2698D01*
X1222Y2698D01*
X1222Y2700D01*
X1224Y2700D01*
X1224Y2702D01*
X1226Y2702D01*
X1226Y2704D01*
X1228Y2704D01*
X1228Y2706D01*
X1230Y2706D01*
X1230Y2708D01*
X1232Y2708D01*
X1232Y2710D01*
X1234Y2710D01*
X1234Y2712D01*
X1236Y2712D01*
X1236Y2714D01*
X1238Y2714D01*
X1238Y2716D01*
X1240Y2716D01*
X1240Y2718D01*
X1242Y2718D01*
X1242Y2720D01*
X1244Y2720D01*
X1244Y2722D01*
X1246Y2722D01*
X1246Y2724D01*
X1248Y2724D01*
X1248Y2726D01*
X1250Y2726D01*
X1250Y2728D01*
X1252Y2728D01*
X1252Y2730D01*
X1254Y2730D01*
X1254Y2732D01*
X1256Y2732D01*
X1256Y2734D01*
X1258Y2734D01*
X1258Y2736D01*
X1260Y2736D01*
X1260Y2738D01*
X1262Y2738D01*
X1262Y2740D01*
X1264Y2740D01*
X1264Y2742D01*
X1266Y2742D01*
X1266Y2744D01*
X1268Y2744D01*
X1268Y2746D01*
X1270Y2746D01*
X1270Y2748D01*
X1272Y2748D01*
X1272Y2750D01*
X1274Y2750D01*
X1274Y2752D01*
X1276Y2752D01*
X1276Y2754D01*
X1278Y2754D01*
X1278Y2756D01*
X1280Y2756D01*
X1280Y2758D01*
X1282Y2758D01*
X1282Y2760D01*
X1284Y2760D01*
X1284Y2762D01*
X1286Y2762D01*
X1286Y2764D01*
X1288Y2764D01*
X1288Y2766D01*
X1290Y2766D01*
X1290Y2768D01*
X1292Y2768D01*
X1292Y2770D01*
X1294Y2770D01*
X1294Y2772D01*
X1296Y2772D01*
X1296Y2774D01*
X1298Y2774D01*
X1298Y2776D01*
X1300Y2776D01*
X1300Y2778D01*
X1302Y2778D01*
X1302Y2780D01*
X1304Y2780D01*
X1304Y2782D01*
X1306Y2782D01*
X1306Y2784D01*
X1308Y2784D01*
X1308Y2786D01*
X1310Y2786D01*
X1310Y2788D01*
X1312Y2788D01*
X1312Y2790D01*
X1314Y2790D01*
X1314Y2792D01*
X1316Y2792D01*
X1316Y2794D01*
X1318Y2794D01*
X1318Y2796D01*
X1320Y2796D01*
X1320Y2798D01*
X1322Y2798D01*
X1322Y2800D01*
X1324Y2800D01*
X1324Y2802D01*
X1326Y2802D01*
X1326Y2804D01*
X1328Y2804D01*
X1328Y2806D01*
X1330Y2806D01*
X1330Y2808D01*
X1332Y2808D01*
X1332Y2810D01*
X1334Y2810D01*
X1334Y2812D01*
X1336Y2812D01*
X1336Y2814D01*
X1338Y2814D01*
X1338Y2816D01*
X1340Y2816D01*
X1340Y2818D01*
X1342Y2818D01*
X1342Y2820D01*
X1344Y2820D01*
X1344Y2822D01*
X1346Y2822D01*
X1346Y2824D01*
X1348Y2824D01*
X1348Y2826D01*
X1350Y2826D01*
X1350Y2828D01*
X1352Y2828D01*
X1352Y2830D01*
X1354Y2830D01*
X1354Y2832D01*
X1356Y2832D01*
X1356Y2834D01*
X1358Y2834D01*
X1358Y2836D01*
X1360Y2836D01*
X1360Y2838D01*
X1362Y2838D01*
X1362Y2840D01*
X1364Y2840D01*
X1364Y2842D01*
X1366Y2842D01*
X1366Y2844D01*
X1368Y2844D01*
X1368Y2846D01*
X1370Y2846D01*
X1370Y2848D01*
X1372Y2848D01*
X1372Y2850D01*
X1374Y2850D01*
X1374Y2852D01*
X1376Y2852D01*
X1376Y2854D01*
X1378Y2854D01*
X1378Y2856D01*
X1380Y2856D01*
X1380Y2858D01*
X1382Y2858D01*
X1382Y2860D01*
X1384Y2860D01*
X1384Y2862D01*
X1386Y2862D01*
X1386Y2864D01*
X1388Y2864D01*
X1388Y2866D01*
X1390Y2866D01*
X1390Y2868D01*
X1392Y2868D01*
X1392Y2870D01*
X1394Y2870D01*
X1394Y2872D01*
X1396Y2872D01*
X1396Y2874D01*
X1398Y2874D01*
X1398Y2876D01*
X1400Y2876D01*
X1400Y2878D01*
X1404Y2878D01*
X1404Y2880D01*
X898Y2880D01*
G37*
D02*
G36*
X1266Y2138D02*
X1266Y2026D01*
X1924Y2026D01*
X1924Y2138D01*
X1266Y2138D01*
G37*
D02*
G36*
X722Y2026D02*
X722Y2024D01*
X1924Y2024D01*
X1924Y2026D01*
X722Y2026D01*
G37*
D02*
G36*
X722Y2026D02*
X722Y2024D01*
X1924Y2024D01*
X1924Y2026D01*
X722Y2026D01*
G37*
D02*
G36*
X722Y2024D02*
X722Y2020D01*
X720Y2020D01*
X720Y2010D01*
X718Y2010D01*
X718Y2000D01*
X716Y2000D01*
X716Y1990D01*
X714Y1990D01*
X714Y1980D01*
X712Y1980D01*
X712Y1970D01*
X710Y1970D01*
X710Y1962D01*
X708Y1962D01*
X708Y1952D01*
X706Y1952D01*
X706Y1942D01*
X704Y1942D01*
X704Y1932D01*
X702Y1932D01*
X702Y1922D01*
X700Y1922D01*
X700Y1912D01*
X698Y1912D01*
X698Y1904D01*
X696Y1904D01*
X696Y1894D01*
X694Y1894D01*
X694Y1884D01*
X692Y1884D01*
X692Y1874D01*
X690Y1874D01*
X690Y1864D01*
X688Y1864D01*
X688Y1854D01*
X686Y1854D01*
X686Y1846D01*
X684Y1846D01*
X684Y1836D01*
X682Y1836D01*
X682Y1826D01*
X680Y1826D01*
X680Y1816D01*
X678Y1816D01*
X678Y1806D01*
X676Y1806D01*
X676Y1796D01*
X674Y1796D01*
X674Y1788D01*
X672Y1788D01*
X672Y1778D01*
X670Y1778D01*
X670Y1768D01*
X668Y1768D01*
X668Y1758D01*
X666Y1758D01*
X666Y1748D01*
X664Y1748D01*
X664Y1738D01*
X662Y1738D01*
X662Y1730D01*
X660Y1730D01*
X660Y1720D01*
X658Y1720D01*
X658Y1710D01*
X656Y1710D01*
X656Y1700D01*
X654Y1700D01*
X654Y1690D01*
X652Y1690D01*
X652Y1680D01*
X650Y1680D01*
X650Y1670D01*
X648Y1670D01*
X648Y1662D01*
X646Y1662D01*
X646Y1652D01*
X644Y1652D01*
X644Y1642D01*
X642Y1642D01*
X642Y1632D01*
X640Y1632D01*
X640Y1622D01*
X638Y1622D01*
X638Y1612D01*
X636Y1612D01*
X636Y1604D01*
X634Y1604D01*
X634Y1594D01*
X632Y1594D01*
X632Y1584D01*
X630Y1584D01*
X630Y1574D01*
X628Y1574D01*
X628Y1552D01*
X1294Y1552D01*
X1294Y1554D01*
X1296Y1554D01*
X1296Y1556D01*
X1300Y1556D01*
X1300Y1558D01*
X1304Y1558D01*
X1304Y1560D01*
X1306Y1560D01*
X1306Y1562D01*
X1310Y1562D01*
X1310Y1564D01*
X1314Y1564D01*
X1314Y1566D01*
X1316Y1566D01*
X1316Y1568D01*
X1320Y1568D01*
X1320Y1570D01*
X1324Y1570D01*
X1324Y1572D01*
X1326Y1572D01*
X1326Y1574D01*
X1330Y1574D01*
X1330Y1576D01*
X1334Y1576D01*
X1334Y1578D01*
X1336Y1578D01*
X1336Y1580D01*
X1340Y1580D01*
X1340Y1582D01*
X1344Y1582D01*
X1344Y1584D01*
X1346Y1584D01*
X1346Y1586D01*
X1350Y1586D01*
X1350Y1588D01*
X1354Y1588D01*
X1354Y1590D01*
X1356Y1590D01*
X1356Y1592D01*
X1360Y1592D01*
X1360Y1594D01*
X1364Y1594D01*
X1364Y1596D01*
X1366Y1596D01*
X1366Y1598D01*
X1370Y1598D01*
X1370Y1600D01*
X1374Y1600D01*
X1374Y1602D01*
X1376Y1602D01*
X1376Y1604D01*
X1380Y1604D01*
X1380Y1606D01*
X1382Y1606D01*
X1382Y1608D01*
X1386Y1608D01*
X1386Y1610D01*
X1390Y1610D01*
X1390Y1612D01*
X1392Y1612D01*
X1392Y1614D01*
X1396Y1614D01*
X1396Y1616D01*
X1400Y1616D01*
X1400Y1618D01*
X1402Y1618D01*
X1402Y1620D01*
X1406Y1620D01*
X1406Y1622D01*
X1410Y1622D01*
X1410Y1624D01*
X1412Y1624D01*
X1412Y1626D01*
X1416Y1626D01*
X1416Y1628D01*
X1420Y1628D01*
X1420Y1630D01*
X1422Y1630D01*
X1422Y1632D01*
X1426Y1632D01*
X1426Y1634D01*
X1430Y1634D01*
X1430Y1636D01*
X1432Y1636D01*
X1432Y1638D01*
X1436Y1638D01*
X1436Y1640D01*
X1440Y1640D01*
X1440Y1642D01*
X1442Y1642D01*
X1442Y1644D01*
X1446Y1644D01*
X1446Y1646D01*
X1450Y1646D01*
X1450Y1648D01*
X1452Y1648D01*
X1452Y1650D01*
X1456Y1650D01*
X1456Y1652D01*
X1460Y1652D01*
X1460Y1654D01*
X1462Y1654D01*
X1462Y1656D01*
X1466Y1656D01*
X1466Y1658D01*
X1470Y1658D01*
X1470Y1660D01*
X1472Y1660D01*
X1472Y1662D01*
X1476Y1662D01*
X1476Y1664D01*
X1480Y1664D01*
X1480Y1666D01*
X1482Y1666D01*
X1482Y1668D01*
X1486Y1668D01*
X1486Y1670D01*
X1490Y1670D01*
X1490Y1672D01*
X1492Y1672D01*
X1492Y1674D01*
X1496Y1674D01*
X1496Y1676D01*
X1500Y1676D01*
X1500Y1678D01*
X1502Y1678D01*
X1502Y1680D01*
X1506Y1680D01*
X1506Y1682D01*
X1924Y1682D01*
X1924Y2024D01*
X722Y2024D01*
G37*
D02*
G36*
X3706Y2940D02*
X3706Y2938D01*
X3012Y2938D01*
X3012Y2484D01*
X3518Y2484D01*
X3518Y2482D01*
X3524Y2482D01*
X3524Y2480D01*
X3526Y2480D01*
X3526Y2478D01*
X3530Y2478D01*
X3530Y2474D01*
X3532Y2474D01*
X3532Y2472D01*
X3534Y2472D01*
X3534Y2466D01*
X3536Y2466D01*
X3536Y1166D01*
X3538Y1166D01*
X3538Y1162D01*
X3540Y1162D01*
X3540Y1160D01*
X3542Y1160D01*
X3542Y1156D01*
X3544Y1156D01*
X3544Y1154D01*
X3546Y1154D01*
X3546Y1150D01*
X3548Y1150D01*
X3548Y1148D01*
X3550Y1148D01*
X3550Y1144D01*
X3552Y1144D01*
X3552Y1142D01*
X3554Y1142D01*
X3554Y1138D01*
X3556Y1138D01*
X3556Y1136D01*
X3558Y1136D01*
X3558Y1132D01*
X3560Y1132D01*
X3560Y1130D01*
X3562Y1130D01*
X3562Y1126D01*
X3564Y1126D01*
X3564Y1124D01*
X3566Y1124D01*
X3566Y1120D01*
X3568Y1120D01*
X3568Y1118D01*
X3570Y1118D01*
X3570Y1114D01*
X3572Y1114D01*
X3572Y1112D01*
X3574Y1112D01*
X3574Y1108D01*
X3576Y1108D01*
X3576Y1106D01*
X3578Y1106D01*
X3578Y1102D01*
X3580Y1102D01*
X3580Y1100D01*
X3582Y1100D01*
X3582Y1096D01*
X3584Y1096D01*
X3584Y1094D01*
X3586Y1094D01*
X3586Y1090D01*
X3588Y1090D01*
X3588Y1088D01*
X3590Y1088D01*
X3590Y1084D01*
X3610Y1084D01*
X3610Y1342D01*
X3792Y1342D01*
X3792Y2940D01*
X3706Y2940D01*
G37*
D02*
G36*
X3012Y2484D02*
X3012Y2482D01*
X3320Y2482D01*
X3320Y2484D01*
X3012Y2484D01*
G37*
D02*
G36*
X1834Y2938D02*
X1834Y2924D01*
X1832Y2924D01*
X1832Y2910D01*
X1830Y2910D01*
X1830Y2896D01*
X1828Y2896D01*
X1828Y2884D01*
X1826Y2884D01*
X1826Y2870D01*
X1824Y2870D01*
X1824Y2856D01*
X1822Y2856D01*
X1822Y2842D01*
X1820Y2842D01*
X1820Y2828D01*
X1818Y2828D01*
X1818Y2814D01*
X1816Y2814D01*
X1816Y2800D01*
X1814Y2800D01*
X1814Y2786D01*
X1812Y2786D01*
X1812Y2774D01*
X1810Y2774D01*
X1810Y2760D01*
X1808Y2760D01*
X1808Y2746D01*
X1806Y2746D01*
X1806Y2732D01*
X1804Y2732D01*
X1804Y2718D01*
X1802Y2718D01*
X1802Y2704D01*
X1800Y2704D01*
X1800Y2690D01*
X1798Y2690D01*
X1798Y2676D01*
X1796Y2676D01*
X1796Y2662D01*
X1794Y2662D01*
X1794Y2650D01*
X1792Y2650D01*
X1792Y2636D01*
X1790Y2636D01*
X1790Y2622D01*
X1788Y2622D01*
X1788Y2608D01*
X1786Y2608D01*
X1786Y2594D01*
X1784Y2594D01*
X1784Y2580D01*
X1782Y2580D01*
X1782Y2566D01*
X1780Y2566D01*
X1780Y2552D01*
X1778Y2552D01*
X1778Y2540D01*
X1776Y2540D01*
X1776Y2526D01*
X1774Y2526D01*
X1774Y2512D01*
X1772Y2512D01*
X1772Y2498D01*
X1770Y2498D01*
X1770Y2484D01*
X1768Y2484D01*
X1768Y2470D01*
X1766Y2470D01*
X1766Y2456D01*
X1764Y2456D01*
X1764Y2442D01*
X1762Y2442D01*
X1762Y2428D01*
X1760Y2428D01*
X1760Y2416D01*
X1758Y2416D01*
X1758Y2402D01*
X1756Y2402D01*
X1756Y2388D01*
X1754Y2388D01*
X1754Y2374D01*
X1752Y2374D01*
X1752Y2360D01*
X1750Y2360D01*
X1750Y2346D01*
X1748Y2346D01*
X1748Y2332D01*
X1746Y2332D01*
X1746Y2318D01*
X1744Y2318D01*
X1744Y2306D01*
X1742Y2306D01*
X1742Y2292D01*
X1740Y2292D01*
X1740Y2278D01*
X1738Y2278D01*
X1738Y2264D01*
X1736Y2264D01*
X1736Y2252D01*
X1734Y2252D01*
X1734Y2246D01*
X1732Y2246D01*
X1732Y2244D01*
X1730Y2244D01*
X1730Y2242D01*
X1728Y2242D01*
X1728Y2240D01*
X1726Y2240D01*
X1726Y2238D01*
X1724Y2238D01*
X1724Y2236D01*
X1716Y2236D01*
X1716Y2234D01*
X1924Y2234D01*
X1924Y2938D01*
X1834Y2938D01*
G37*
D02*
G36*
X1326Y2742D02*
X1326Y2740D01*
X1324Y2740D01*
X1324Y2738D01*
X1322Y2738D01*
X1322Y2736D01*
X1320Y2736D01*
X1320Y2734D01*
X1318Y2734D01*
X1318Y2732D01*
X1316Y2732D01*
X1316Y2730D01*
X1314Y2730D01*
X1314Y2728D01*
X1312Y2728D01*
X1312Y2726D01*
X1310Y2726D01*
X1310Y2724D01*
X1308Y2724D01*
X1308Y2722D01*
X1306Y2722D01*
X1306Y2720D01*
X1304Y2720D01*
X1304Y2718D01*
X1302Y2718D01*
X1302Y2716D01*
X1300Y2716D01*
X1300Y2714D01*
X1298Y2714D01*
X1298Y2712D01*
X1296Y2712D01*
X1296Y2710D01*
X1294Y2710D01*
X1294Y2708D01*
X1292Y2708D01*
X1292Y2706D01*
X1290Y2706D01*
X1290Y2704D01*
X1288Y2704D01*
X1288Y2702D01*
X1286Y2702D01*
X1286Y2700D01*
X1284Y2700D01*
X1284Y2698D01*
X1282Y2698D01*
X1282Y2696D01*
X1280Y2696D01*
X1280Y2694D01*
X1278Y2694D01*
X1278Y2692D01*
X1276Y2692D01*
X1276Y2690D01*
X1274Y2690D01*
X1274Y2688D01*
X1272Y2688D01*
X1272Y2686D01*
X1270Y2686D01*
X1270Y2684D01*
X1268Y2684D01*
X1268Y2682D01*
X1266Y2682D01*
X1266Y2234D01*
X1712Y2234D01*
X1712Y2236D01*
X1704Y2236D01*
X1704Y2238D01*
X1702Y2238D01*
X1702Y2240D01*
X1698Y2240D01*
X1698Y2242D01*
X1696Y2242D01*
X1696Y2246D01*
X1694Y2246D01*
X1694Y2248D01*
X1692Y2248D01*
X1692Y2252D01*
X1690Y2252D01*
X1690Y2254D01*
X1688Y2254D01*
X1688Y2258D01*
X1686Y2258D01*
X1686Y2260D01*
X1684Y2260D01*
X1684Y2264D01*
X1682Y2264D01*
X1682Y2266D01*
X1680Y2266D01*
X1680Y2270D01*
X1678Y2270D01*
X1678Y2272D01*
X1676Y2272D01*
X1676Y2276D01*
X1674Y2276D01*
X1674Y2278D01*
X1672Y2278D01*
X1672Y2282D01*
X1670Y2282D01*
X1670Y2284D01*
X1668Y2284D01*
X1668Y2288D01*
X1666Y2288D01*
X1666Y2290D01*
X1664Y2290D01*
X1664Y2294D01*
X1662Y2294D01*
X1662Y2296D01*
X1660Y2296D01*
X1660Y2300D01*
X1658Y2300D01*
X1658Y2302D01*
X1656Y2302D01*
X1656Y2306D01*
X1654Y2306D01*
X1654Y2308D01*
X1652Y2308D01*
X1652Y2312D01*
X1650Y2312D01*
X1650Y2314D01*
X1648Y2314D01*
X1648Y2318D01*
X1646Y2318D01*
X1646Y2320D01*
X1644Y2320D01*
X1644Y2324D01*
X1642Y2324D01*
X1642Y2326D01*
X1640Y2326D01*
X1640Y2330D01*
X1638Y2330D01*
X1638Y2334D01*
X1636Y2334D01*
X1636Y2336D01*
X1634Y2336D01*
X1634Y2340D01*
X1632Y2340D01*
X1632Y2342D01*
X1630Y2342D01*
X1630Y2346D01*
X1628Y2346D01*
X1628Y2348D01*
X1626Y2348D01*
X1626Y2352D01*
X1624Y2352D01*
X1624Y2354D01*
X1622Y2354D01*
X1622Y2358D01*
X1620Y2358D01*
X1620Y2360D01*
X1618Y2360D01*
X1618Y2364D01*
X1616Y2364D01*
X1616Y2366D01*
X1614Y2366D01*
X1614Y2370D01*
X1612Y2370D01*
X1612Y2372D01*
X1610Y2372D01*
X1610Y2376D01*
X1608Y2376D01*
X1608Y2378D01*
X1606Y2378D01*
X1606Y2382D01*
X1604Y2382D01*
X1604Y2384D01*
X1602Y2384D01*
X1602Y2388D01*
X1346Y2388D01*
X1346Y2742D01*
X1326Y2742D01*
G37*
D02*
G36*
X1266Y2234D02*
X1266Y2232D01*
X1924Y2232D01*
X1924Y2234D01*
X1266Y2234D01*
G37*
D02*
G36*
X1266Y2234D02*
X1266Y2232D01*
X1924Y2232D01*
X1924Y2234D01*
X1266Y2234D01*
G37*
D02*
G36*
X1266Y2232D02*
X1266Y2182D01*
X1924Y2182D01*
X1924Y2232D01*
X1266Y2232D01*
G37*
D02*
G36*
X3324Y2440D02*
X3324Y2438D01*
X3012Y2438D01*
X3012Y1682D01*
X3324Y1682D01*
X3324Y1680D01*
X3328Y1680D01*
X3328Y1678D01*
X3330Y1678D01*
X3330Y1676D01*
X3332Y1676D01*
X3332Y1674D01*
X3334Y1674D01*
X3334Y1670D01*
X3336Y1670D01*
X3336Y1660D01*
X3338Y1660D01*
X3338Y870D01*
X3340Y870D01*
X3340Y868D01*
X3342Y868D01*
X3342Y866D01*
X3346Y866D01*
X3346Y864D01*
X3348Y864D01*
X3348Y862D01*
X3350Y862D01*
X3350Y860D01*
X3354Y860D01*
X3354Y858D01*
X3356Y858D01*
X3356Y856D01*
X3358Y856D01*
X3358Y854D01*
X3362Y854D01*
X3362Y852D01*
X3364Y852D01*
X3364Y850D01*
X3366Y850D01*
X3366Y848D01*
X3370Y848D01*
X3370Y846D01*
X3372Y846D01*
X3372Y844D01*
X3374Y844D01*
X3374Y842D01*
X3376Y842D01*
X3376Y840D01*
X3380Y840D01*
X3380Y838D01*
X3708Y838D01*
X3708Y840D01*
X3702Y840D01*
X3702Y842D01*
X3698Y842D01*
X3698Y844D01*
X3696Y844D01*
X3696Y846D01*
X3694Y846D01*
X3694Y850D01*
X3692Y850D01*
X3692Y852D01*
X3690Y852D01*
X3690Y856D01*
X3688Y856D01*
X3688Y858D01*
X3686Y858D01*
X3686Y862D01*
X3684Y862D01*
X3684Y864D01*
X3682Y864D01*
X3682Y868D01*
X3680Y868D01*
X3680Y870D01*
X3678Y870D01*
X3678Y874D01*
X3676Y874D01*
X3676Y876D01*
X3674Y876D01*
X3674Y880D01*
X3672Y880D01*
X3672Y882D01*
X3670Y882D01*
X3670Y886D01*
X3668Y886D01*
X3668Y888D01*
X3666Y888D01*
X3666Y892D01*
X3664Y892D01*
X3664Y896D01*
X3662Y896D01*
X3662Y898D01*
X3660Y898D01*
X3660Y902D01*
X3658Y902D01*
X3658Y904D01*
X3656Y904D01*
X3656Y908D01*
X3654Y908D01*
X3654Y910D01*
X3652Y910D01*
X3652Y914D01*
X3650Y914D01*
X3650Y916D01*
X3648Y916D01*
X3648Y918D01*
X3610Y918D01*
X3610Y976D01*
X3608Y976D01*
X3608Y980D01*
X3606Y980D01*
X3606Y982D01*
X3604Y982D01*
X3604Y986D01*
X3602Y986D01*
X3602Y988D01*
X3600Y988D01*
X3600Y992D01*
X3598Y992D01*
X3598Y996D01*
X3596Y996D01*
X3596Y998D01*
X3594Y998D01*
X3594Y1002D01*
X3592Y1002D01*
X3592Y1004D01*
X3590Y1004D01*
X3590Y1008D01*
X3588Y1008D01*
X3588Y1010D01*
X3586Y1010D01*
X3586Y1014D01*
X3584Y1014D01*
X3584Y1016D01*
X3582Y1016D01*
X3582Y1020D01*
X3580Y1020D01*
X3580Y1022D01*
X3578Y1022D01*
X3578Y1026D01*
X3576Y1026D01*
X3576Y1028D01*
X3574Y1028D01*
X3574Y1032D01*
X3572Y1032D01*
X3572Y1034D01*
X3570Y1034D01*
X3570Y1038D01*
X3568Y1038D01*
X3568Y1040D01*
X3566Y1040D01*
X3566Y1044D01*
X3564Y1044D01*
X3564Y1046D01*
X3562Y1046D01*
X3562Y1050D01*
X3560Y1050D01*
X3560Y1052D01*
X3558Y1052D01*
X3558Y1056D01*
X3556Y1056D01*
X3556Y1058D01*
X3554Y1058D01*
X3554Y1062D01*
X3552Y1062D01*
X3552Y1064D01*
X3550Y1064D01*
X3550Y1068D01*
X3548Y1068D01*
X3548Y1070D01*
X3546Y1070D01*
X3546Y1074D01*
X3544Y1074D01*
X3544Y1076D01*
X3542Y1076D01*
X3542Y1080D01*
X3540Y1080D01*
X3540Y1082D01*
X3538Y1082D01*
X3538Y1086D01*
X3536Y1086D01*
X3536Y1090D01*
X3534Y1090D01*
X3534Y1092D01*
X3532Y1092D01*
X3532Y1096D01*
X3530Y1096D01*
X3530Y1098D01*
X3528Y1098D01*
X3528Y1102D01*
X3526Y1102D01*
X3526Y1104D01*
X3524Y1104D01*
X3524Y1108D01*
X3522Y1108D01*
X3522Y1110D01*
X3520Y1110D01*
X3520Y1114D01*
X3518Y1114D01*
X3518Y1116D01*
X3516Y1116D01*
X3516Y1120D01*
X3514Y1120D01*
X3514Y1122D01*
X3512Y1122D01*
X3512Y1126D01*
X3510Y1126D01*
X3510Y1128D01*
X3508Y1128D01*
X3508Y1132D01*
X3506Y1132D01*
X3506Y1134D01*
X3504Y1134D01*
X3504Y1138D01*
X3502Y1138D01*
X3502Y1140D01*
X3500Y1140D01*
X3500Y1144D01*
X3498Y1144D01*
X3498Y1146D01*
X3496Y1146D01*
X3496Y1150D01*
X3494Y1150D01*
X3494Y1154D01*
X3492Y1154D01*
X3492Y2440D01*
X3324Y2440D01*
G37*
D02*
G36*
X3800Y918D02*
X3800Y916D01*
X3798Y916D01*
X3798Y914D01*
X3796Y914D01*
X3796Y912D01*
X3794Y912D01*
X3794Y910D01*
X3792Y910D01*
X3792Y908D01*
X3790Y908D01*
X3790Y906D01*
X3788Y906D01*
X3788Y904D01*
X3786Y904D01*
X3786Y902D01*
X3784Y902D01*
X3784Y900D01*
X3782Y900D01*
X3782Y898D01*
X3780Y898D01*
X3780Y896D01*
X3778Y896D01*
X3778Y894D01*
X3776Y894D01*
X3776Y892D01*
X3774Y892D01*
X3774Y890D01*
X3772Y890D01*
X3772Y888D01*
X3770Y888D01*
X3770Y886D01*
X3768Y886D01*
X3768Y884D01*
X3766Y884D01*
X3766Y882D01*
X3764Y882D01*
X3764Y880D01*
X3762Y880D01*
X3762Y878D01*
X3760Y878D01*
X3760Y876D01*
X3758Y876D01*
X3758Y874D01*
X3756Y874D01*
X3756Y872D01*
X3754Y872D01*
X3754Y870D01*
X3752Y870D01*
X3752Y868D01*
X3750Y868D01*
X3750Y866D01*
X3748Y866D01*
X3748Y864D01*
X3746Y864D01*
X3746Y862D01*
X3744Y862D01*
X3744Y860D01*
X3742Y860D01*
X3742Y858D01*
X3740Y858D01*
X3740Y856D01*
X3738Y856D01*
X3738Y854D01*
X3736Y854D01*
X3736Y852D01*
X3734Y852D01*
X3734Y850D01*
X3732Y850D01*
X3732Y848D01*
X3730Y848D01*
X3730Y846D01*
X3728Y846D01*
X3728Y844D01*
X3726Y844D01*
X3726Y842D01*
X3722Y842D01*
X3722Y840D01*
X3718Y840D01*
X3718Y838D01*
X3918Y838D01*
X3918Y842D01*
X3920Y842D01*
X3920Y844D01*
X3922Y844D01*
X3922Y846D01*
X3924Y846D01*
X3924Y848D01*
X3926Y848D01*
X3926Y850D01*
X3928Y850D01*
X3928Y854D01*
X3930Y854D01*
X3930Y856D01*
X3932Y856D01*
X3932Y858D01*
X3934Y858D01*
X3934Y860D01*
X3936Y860D01*
X3936Y862D01*
X3938Y862D01*
X3938Y866D01*
X3940Y866D01*
X3940Y868D01*
X3942Y868D01*
X3942Y870D01*
X3944Y870D01*
X3944Y872D01*
X3946Y872D01*
X3946Y874D01*
X3948Y874D01*
X3948Y878D01*
X3950Y878D01*
X3950Y880D01*
X3952Y880D01*
X3952Y882D01*
X3954Y882D01*
X3954Y884D01*
X3956Y884D01*
X3956Y886D01*
X3958Y886D01*
X3958Y888D01*
X3960Y888D01*
X3960Y892D01*
X3962Y892D01*
X3962Y894D01*
X3964Y894D01*
X3964Y896D01*
X3966Y896D01*
X3966Y898D01*
X3968Y898D01*
X3968Y918D01*
X3800Y918D01*
G37*
D02*
G36*
X3382Y838D02*
X3382Y836D01*
X3916Y836D01*
X3916Y838D01*
X3382Y838D01*
G37*
D02*
G36*
X3382Y838D02*
X3382Y836D01*
X3916Y836D01*
X3916Y838D01*
X3382Y838D01*
G37*
D02*
G36*
X3384Y836D02*
X3384Y834D01*
X3388Y834D01*
X3388Y832D01*
X3390Y832D01*
X3390Y830D01*
X3392Y830D01*
X3392Y828D01*
X3396Y828D01*
X3396Y826D01*
X3398Y826D01*
X3398Y824D01*
X3400Y824D01*
X3400Y822D01*
X3404Y822D01*
X3404Y820D01*
X3406Y820D01*
X3406Y818D01*
X3408Y818D01*
X3408Y816D01*
X3412Y816D01*
X3412Y814D01*
X3414Y814D01*
X3414Y812D01*
X3416Y812D01*
X3416Y810D01*
X3420Y810D01*
X3420Y808D01*
X3422Y808D01*
X3422Y806D01*
X3424Y806D01*
X3424Y804D01*
X3428Y804D01*
X3428Y802D01*
X3430Y802D01*
X3430Y800D01*
X3432Y800D01*
X3432Y798D01*
X3436Y798D01*
X3436Y796D01*
X3438Y796D01*
X3438Y794D01*
X3440Y794D01*
X3440Y792D01*
X3442Y792D01*
X3442Y790D01*
X3446Y790D01*
X3446Y788D01*
X3448Y788D01*
X3448Y786D01*
X3450Y786D01*
X3450Y784D01*
X3454Y784D01*
X3454Y782D01*
X3456Y782D01*
X3456Y780D01*
X3458Y780D01*
X3458Y778D01*
X3462Y778D01*
X3462Y776D01*
X3464Y776D01*
X3464Y774D01*
X3466Y774D01*
X3466Y772D01*
X3470Y772D01*
X3470Y770D01*
X3472Y770D01*
X3472Y768D01*
X3474Y768D01*
X3474Y766D01*
X3478Y766D01*
X3478Y764D01*
X3480Y764D01*
X3480Y762D01*
X3482Y762D01*
X3482Y760D01*
X3486Y760D01*
X3486Y758D01*
X3488Y758D01*
X3488Y756D01*
X3490Y756D01*
X3490Y754D01*
X3494Y754D01*
X3494Y752D01*
X3496Y752D01*
X3496Y750D01*
X3498Y750D01*
X3498Y748D01*
X3502Y748D01*
X3502Y746D01*
X3504Y746D01*
X3504Y744D01*
X3506Y744D01*
X3506Y742D01*
X3508Y742D01*
X3508Y740D01*
X3512Y740D01*
X3512Y738D01*
X3514Y738D01*
X3514Y736D01*
X3516Y736D01*
X3516Y734D01*
X3520Y734D01*
X3520Y732D01*
X3522Y732D01*
X3522Y730D01*
X3524Y730D01*
X3524Y728D01*
X3528Y728D01*
X3528Y726D01*
X3530Y726D01*
X3530Y724D01*
X3532Y724D01*
X3532Y722D01*
X3536Y722D01*
X3536Y720D01*
X3538Y720D01*
X3538Y718D01*
X3540Y718D01*
X3540Y716D01*
X3544Y716D01*
X3544Y714D01*
X3546Y714D01*
X3546Y712D01*
X3548Y712D01*
X3548Y710D01*
X3552Y710D01*
X3552Y708D01*
X3554Y708D01*
X3554Y706D01*
X3556Y706D01*
X3556Y704D01*
X3560Y704D01*
X3560Y702D01*
X3562Y702D01*
X3562Y700D01*
X3564Y700D01*
X3564Y698D01*
X3568Y698D01*
X3568Y696D01*
X3570Y696D01*
X3570Y694D01*
X3572Y694D01*
X3572Y692D01*
X3574Y692D01*
X3574Y690D01*
X3578Y690D01*
X3578Y688D01*
X3580Y688D01*
X3580Y686D01*
X3582Y686D01*
X3582Y684D01*
X3586Y684D01*
X3586Y682D01*
X3588Y682D01*
X3588Y680D01*
X3590Y680D01*
X3590Y678D01*
X3594Y678D01*
X3594Y676D01*
X3596Y676D01*
X3596Y674D01*
X3598Y674D01*
X3598Y672D01*
X3602Y672D01*
X3602Y670D01*
X3604Y670D01*
X3604Y668D01*
X3606Y668D01*
X3606Y666D01*
X3610Y666D01*
X3610Y664D01*
X3612Y664D01*
X3612Y662D01*
X3614Y662D01*
X3614Y660D01*
X3618Y660D01*
X3618Y658D01*
X3620Y658D01*
X3620Y656D01*
X3622Y656D01*
X3622Y654D01*
X3626Y654D01*
X3626Y652D01*
X3628Y652D01*
X3628Y650D01*
X3630Y650D01*
X3630Y648D01*
X3634Y648D01*
X3634Y646D01*
X3636Y646D01*
X3636Y644D01*
X3638Y644D01*
X3638Y642D01*
X3640Y642D01*
X3640Y640D01*
X3644Y640D01*
X3644Y638D01*
X3646Y638D01*
X3646Y636D01*
X3648Y636D01*
X3648Y634D01*
X3652Y634D01*
X3652Y632D01*
X3654Y632D01*
X3654Y630D01*
X3656Y630D01*
X3656Y628D01*
X3660Y628D01*
X3660Y626D01*
X3662Y626D01*
X3662Y624D01*
X3664Y624D01*
X3664Y622D01*
X3668Y622D01*
X3668Y620D01*
X3670Y620D01*
X3670Y618D01*
X3672Y618D01*
X3672Y616D01*
X3676Y616D01*
X3676Y614D01*
X3678Y614D01*
X3678Y612D01*
X3680Y612D01*
X3680Y610D01*
X3684Y610D01*
X3684Y608D01*
X3686Y608D01*
X3686Y606D01*
X3688Y606D01*
X3688Y604D01*
X3692Y604D01*
X3692Y602D01*
X3694Y602D01*
X3694Y600D01*
X3696Y600D01*
X3696Y598D01*
X3716Y598D01*
X3716Y600D01*
X3718Y600D01*
X3718Y602D01*
X3720Y602D01*
X3720Y604D01*
X3722Y604D01*
X3722Y606D01*
X3724Y606D01*
X3724Y608D01*
X3726Y608D01*
X3726Y612D01*
X3728Y612D01*
X3728Y614D01*
X3730Y614D01*
X3730Y616D01*
X3732Y616D01*
X3732Y618D01*
X3734Y618D01*
X3734Y620D01*
X3736Y620D01*
X3736Y624D01*
X3738Y624D01*
X3738Y626D01*
X3740Y626D01*
X3740Y628D01*
X3742Y628D01*
X3742Y630D01*
X3744Y630D01*
X3744Y632D01*
X3746Y632D01*
X3746Y636D01*
X3748Y636D01*
X3748Y638D01*
X3750Y638D01*
X3750Y640D01*
X3752Y640D01*
X3752Y642D01*
X3754Y642D01*
X3754Y644D01*
X3756Y644D01*
X3756Y648D01*
X3758Y648D01*
X3758Y650D01*
X3760Y650D01*
X3760Y652D01*
X3762Y652D01*
X3762Y654D01*
X3764Y654D01*
X3764Y656D01*
X3766Y656D01*
X3766Y660D01*
X3768Y660D01*
X3768Y662D01*
X3770Y662D01*
X3770Y664D01*
X3772Y664D01*
X3772Y666D01*
X3774Y666D01*
X3774Y668D01*
X3776Y668D01*
X3776Y672D01*
X3778Y672D01*
X3778Y674D01*
X3780Y674D01*
X3780Y676D01*
X3782Y676D01*
X3782Y678D01*
X3784Y678D01*
X3784Y680D01*
X3786Y680D01*
X3786Y684D01*
X3788Y684D01*
X3788Y686D01*
X3790Y686D01*
X3790Y688D01*
X3792Y688D01*
X3792Y690D01*
X3794Y690D01*
X3794Y692D01*
X3796Y692D01*
X3796Y696D01*
X3798Y696D01*
X3798Y698D01*
X3800Y698D01*
X3800Y700D01*
X3802Y700D01*
X3802Y702D01*
X3804Y702D01*
X3804Y704D01*
X3806Y704D01*
X3806Y706D01*
X3808Y706D01*
X3808Y710D01*
X3810Y710D01*
X3810Y712D01*
X3812Y712D01*
X3812Y714D01*
X3814Y714D01*
X3814Y716D01*
X3816Y716D01*
X3816Y718D01*
X3818Y718D01*
X3818Y722D01*
X3820Y722D01*
X3820Y724D01*
X3822Y724D01*
X3822Y726D01*
X3824Y726D01*
X3824Y728D01*
X3826Y728D01*
X3826Y730D01*
X3828Y730D01*
X3828Y734D01*
X3830Y734D01*
X3830Y736D01*
X3832Y736D01*
X3832Y738D01*
X3834Y738D01*
X3834Y740D01*
X3836Y740D01*
X3836Y742D01*
X3838Y742D01*
X3838Y746D01*
X3840Y746D01*
X3840Y748D01*
X3842Y748D01*
X3842Y750D01*
X3844Y750D01*
X3844Y752D01*
X3846Y752D01*
X3846Y754D01*
X3848Y754D01*
X3848Y758D01*
X3850Y758D01*
X3850Y760D01*
X3852Y760D01*
X3852Y762D01*
X3854Y762D01*
X3854Y764D01*
X3856Y764D01*
X3856Y766D01*
X3858Y766D01*
X3858Y770D01*
X3860Y770D01*
X3860Y772D01*
X3862Y772D01*
X3862Y774D01*
X3864Y774D01*
X3864Y776D01*
X3866Y776D01*
X3866Y778D01*
X3868Y778D01*
X3868Y782D01*
X3870Y782D01*
X3870Y784D01*
X3872Y784D01*
X3872Y786D01*
X3874Y786D01*
X3874Y788D01*
X3876Y788D01*
X3876Y790D01*
X3878Y790D01*
X3878Y794D01*
X3880Y794D01*
X3880Y796D01*
X3882Y796D01*
X3882Y798D01*
X3884Y798D01*
X3884Y800D01*
X3886Y800D01*
X3886Y802D01*
X3888Y802D01*
X3888Y806D01*
X3890Y806D01*
X3890Y808D01*
X3892Y808D01*
X3892Y810D01*
X3894Y810D01*
X3894Y812D01*
X3896Y812D01*
X3896Y814D01*
X3898Y814D01*
X3898Y818D01*
X3900Y818D01*
X3900Y820D01*
X3902Y820D01*
X3902Y822D01*
X3904Y822D01*
X3904Y824D01*
X3906Y824D01*
X3906Y826D01*
X3908Y826D01*
X3908Y830D01*
X3910Y830D01*
X3910Y832D01*
X3912Y832D01*
X3912Y834D01*
X3914Y834D01*
X3914Y836D01*
X3384Y836D01*
G37*
D02*
G36*
X1518Y1638D02*
X1518Y1636D01*
X1514Y1636D01*
X1514Y1634D01*
X1512Y1634D01*
X1512Y1632D01*
X1508Y1632D01*
X1508Y1630D01*
X1504Y1630D01*
X1504Y1628D01*
X1502Y1628D01*
X1502Y1626D01*
X1498Y1626D01*
X1498Y1624D01*
X1494Y1624D01*
X1494Y1622D01*
X1492Y1622D01*
X1492Y1620D01*
X1488Y1620D01*
X1488Y1618D01*
X1484Y1618D01*
X1484Y1616D01*
X1482Y1616D01*
X1482Y1614D01*
X1478Y1614D01*
X1478Y1612D01*
X1474Y1612D01*
X1474Y1610D01*
X1472Y1610D01*
X1472Y1608D01*
X1468Y1608D01*
X1468Y1606D01*
X1464Y1606D01*
X1464Y1604D01*
X1462Y1604D01*
X1462Y1602D01*
X1458Y1602D01*
X1458Y1600D01*
X1454Y1600D01*
X1454Y1598D01*
X1452Y1598D01*
X1452Y1596D01*
X1448Y1596D01*
X1448Y1594D01*
X1446Y1594D01*
X1446Y1592D01*
X1442Y1592D01*
X1442Y1590D01*
X1438Y1590D01*
X1438Y1588D01*
X1436Y1588D01*
X1436Y1586D01*
X1432Y1586D01*
X1432Y1584D01*
X1428Y1584D01*
X1428Y1582D01*
X1426Y1582D01*
X1426Y1580D01*
X1422Y1580D01*
X1422Y1578D01*
X1418Y1578D01*
X1418Y1576D01*
X1416Y1576D01*
X1416Y1574D01*
X1412Y1574D01*
X1412Y1572D01*
X1408Y1572D01*
X1408Y1552D01*
X1576Y1552D01*
X1576Y1554D01*
X1578Y1554D01*
X1578Y1556D01*
X1580Y1556D01*
X1580Y1558D01*
X1582Y1558D01*
X1582Y1560D01*
X1584Y1560D01*
X1584Y1562D01*
X1586Y1562D01*
X1586Y1564D01*
X1588Y1564D01*
X1588Y1566D01*
X1590Y1566D01*
X1590Y1568D01*
X1592Y1568D01*
X1592Y1570D01*
X1594Y1570D01*
X1594Y1574D01*
X1596Y1574D01*
X1596Y1576D01*
X1600Y1576D01*
X1600Y1578D01*
X1604Y1578D01*
X1604Y1580D01*
X1836Y1580D01*
X1836Y1582D01*
X1924Y1582D01*
X1924Y1638D01*
X1518Y1638D01*
G37*
D02*
G36*
X1842Y1538D02*
X1842Y1536D01*
X1620Y1536D01*
X1620Y1534D01*
X1618Y1534D01*
X1618Y1532D01*
X1616Y1532D01*
X1616Y1530D01*
X1614Y1530D01*
X1614Y1146D01*
X1634Y1146D01*
X1634Y1150D01*
X1636Y1150D01*
X1636Y1154D01*
X1638Y1154D01*
X1638Y1158D01*
X1640Y1158D01*
X1640Y1162D01*
X1642Y1162D01*
X1642Y1166D01*
X1644Y1166D01*
X1644Y1170D01*
X1646Y1170D01*
X1646Y1174D01*
X1648Y1174D01*
X1648Y1178D01*
X1650Y1178D01*
X1650Y1182D01*
X1652Y1182D01*
X1652Y1186D01*
X1654Y1186D01*
X1654Y1190D01*
X1656Y1190D01*
X1656Y1194D01*
X1658Y1194D01*
X1658Y1198D01*
X1660Y1198D01*
X1660Y1202D01*
X1662Y1202D01*
X1662Y1206D01*
X1664Y1206D01*
X1664Y1210D01*
X1666Y1210D01*
X1666Y1214D01*
X1668Y1214D01*
X1668Y1218D01*
X1670Y1218D01*
X1670Y1222D01*
X1672Y1222D01*
X1672Y1226D01*
X1674Y1226D01*
X1674Y1230D01*
X1676Y1230D01*
X1676Y1234D01*
X1678Y1234D01*
X1678Y1238D01*
X1680Y1238D01*
X1680Y1242D01*
X1682Y1242D01*
X1682Y1246D01*
X1684Y1246D01*
X1684Y1250D01*
X1686Y1250D01*
X1686Y1254D01*
X1688Y1254D01*
X1688Y1258D01*
X1690Y1258D01*
X1690Y1262D01*
X1692Y1262D01*
X1692Y1266D01*
X1694Y1266D01*
X1694Y1270D01*
X1696Y1270D01*
X1696Y1274D01*
X1698Y1274D01*
X1698Y1278D01*
X1700Y1278D01*
X1700Y1282D01*
X1702Y1282D01*
X1702Y1286D01*
X1704Y1286D01*
X1704Y1290D01*
X1706Y1290D01*
X1706Y1294D01*
X1708Y1294D01*
X1708Y1298D01*
X1710Y1298D01*
X1710Y1302D01*
X1712Y1302D01*
X1712Y1306D01*
X1714Y1306D01*
X1714Y1310D01*
X1716Y1310D01*
X1716Y1314D01*
X1718Y1314D01*
X1718Y1318D01*
X1720Y1318D01*
X1720Y1322D01*
X1722Y1322D01*
X1722Y1326D01*
X1724Y1326D01*
X1724Y1330D01*
X1726Y1330D01*
X1726Y1334D01*
X1728Y1334D01*
X1728Y1338D01*
X1730Y1338D01*
X1730Y1342D01*
X1732Y1342D01*
X1732Y1346D01*
X1734Y1346D01*
X1734Y1350D01*
X1736Y1350D01*
X1736Y1354D01*
X1738Y1354D01*
X1738Y1358D01*
X1740Y1358D01*
X1740Y1362D01*
X1742Y1362D01*
X1742Y1366D01*
X1744Y1366D01*
X1744Y1370D01*
X1746Y1370D01*
X1746Y1374D01*
X1748Y1374D01*
X1748Y1378D01*
X1750Y1378D01*
X1750Y1382D01*
X1752Y1382D01*
X1752Y1386D01*
X1754Y1386D01*
X1754Y1390D01*
X1756Y1390D01*
X1756Y1394D01*
X1758Y1394D01*
X1758Y1398D01*
X1760Y1398D01*
X1760Y1402D01*
X1762Y1402D01*
X1762Y1406D01*
X1764Y1406D01*
X1764Y1410D01*
X1766Y1410D01*
X1766Y1414D01*
X1768Y1414D01*
X1768Y1418D01*
X1770Y1418D01*
X1770Y1422D01*
X1772Y1422D01*
X1772Y1426D01*
X1774Y1426D01*
X1774Y1430D01*
X1776Y1430D01*
X1776Y1434D01*
X1778Y1434D01*
X1778Y1438D01*
X1780Y1438D01*
X1780Y1442D01*
X1782Y1442D01*
X1782Y1446D01*
X1784Y1446D01*
X1784Y1450D01*
X1786Y1450D01*
X1786Y1454D01*
X1788Y1454D01*
X1788Y1458D01*
X1790Y1458D01*
X1790Y1462D01*
X1792Y1462D01*
X1792Y1466D01*
X1794Y1466D01*
X1794Y1470D01*
X1796Y1470D01*
X1796Y1474D01*
X1798Y1474D01*
X1798Y1476D01*
X1800Y1476D01*
X1800Y1478D01*
X1802Y1478D01*
X1802Y1480D01*
X1804Y1480D01*
X1804Y1482D01*
X1808Y1482D01*
X1808Y1484D01*
X1924Y1484D01*
X1924Y1538D01*
X1842Y1538D01*
G37*
D02*
G36*
X200Y202D02*
X200Y200D01*
X194Y200D01*
X194Y198D01*
X190Y198D01*
X190Y196D01*
X188Y196D01*
X188Y194D01*
X186Y194D01*
X186Y192D01*
X182Y192D01*
X182Y190D01*
X180Y190D01*
X180Y186D01*
X178Y186D01*
X178Y184D01*
X176Y184D01*
X176Y180D01*
X174Y180D01*
X174Y176D01*
X172Y176D01*
X172Y170D01*
X170Y170D01*
X170Y148D01*
X172Y148D01*
X172Y142D01*
X174Y142D01*
X174Y138D01*
X176Y138D01*
X176Y134D01*
X178Y134D01*
X178Y132D01*
X180Y132D01*
X180Y130D01*
X182Y130D01*
X182Y128D01*
X184Y128D01*
X184Y126D01*
X186Y126D01*
X186Y124D01*
X188Y124D01*
X188Y122D01*
X192Y122D01*
X192Y120D01*
X196Y120D01*
X196Y118D01*
X202Y118D01*
X202Y116D01*
X226Y116D01*
X226Y118D01*
X232Y118D01*
X232Y120D01*
X234Y120D01*
X234Y122D01*
X238Y122D01*
X238Y124D01*
X240Y124D01*
X240Y126D01*
X244Y126D01*
X244Y128D01*
X246Y128D01*
X246Y130D01*
X248Y130D01*
X248Y134D01*
X250Y134D01*
X250Y136D01*
X252Y136D01*
X252Y140D01*
X254Y140D01*
X254Y144D01*
X256Y144D01*
X256Y174D01*
X254Y174D01*
X254Y180D01*
X252Y180D01*
X252Y182D01*
X250Y182D01*
X250Y186D01*
X248Y186D01*
X248Y188D01*
X246Y188D01*
X246Y190D01*
X244Y190D01*
X244Y192D01*
X242Y192D01*
X242Y194D01*
X240Y194D01*
X240Y196D01*
X236Y196D01*
X236Y198D01*
X232Y198D01*
X232Y200D01*
X228Y200D01*
X228Y202D01*
X200Y202D01*
G37*
D02*
G36*
X4700Y202D02*
X4700Y200D01*
X4694Y200D01*
X4694Y198D01*
X4690Y198D01*
X4690Y196D01*
X4688Y196D01*
X4688Y194D01*
X4686Y194D01*
X4686Y192D01*
X4682Y192D01*
X4682Y190D01*
X4680Y190D01*
X4680Y186D01*
X4678Y186D01*
X4678Y184D01*
X4676Y184D01*
X4676Y180D01*
X4674Y180D01*
X4674Y176D01*
X4672Y176D01*
X4672Y170D01*
X4670Y170D01*
X4670Y148D01*
X4672Y148D01*
X4672Y142D01*
X4674Y142D01*
X4674Y138D01*
X4676Y138D01*
X4676Y134D01*
X4678Y134D01*
X4678Y132D01*
X4680Y132D01*
X4680Y130D01*
X4682Y130D01*
X4682Y128D01*
X4684Y128D01*
X4684Y126D01*
X4686Y126D01*
X4686Y124D01*
X4688Y124D01*
X4688Y122D01*
X4692Y122D01*
X4692Y120D01*
X4696Y120D01*
X4696Y118D01*
X4702Y118D01*
X4702Y116D01*
X4726Y116D01*
X4726Y118D01*
X4732Y118D01*
X4732Y120D01*
X4734Y120D01*
X4734Y122D01*
X4738Y122D01*
X4738Y124D01*
X4740Y124D01*
X4740Y126D01*
X4744Y126D01*
X4744Y128D01*
X4746Y128D01*
X4746Y130D01*
X4748Y130D01*
X4748Y134D01*
X4750Y134D01*
X4750Y136D01*
X4752Y136D01*
X4752Y140D01*
X4754Y140D01*
X4754Y144D01*
X4756Y144D01*
X4756Y174D01*
X4754Y174D01*
X4754Y180D01*
X4752Y180D01*
X4752Y182D01*
X4750Y182D01*
X4750Y186D01*
X4748Y186D01*
X4748Y188D01*
X4746Y188D01*
X4746Y190D01*
X4744Y190D01*
X4744Y192D01*
X4742Y192D01*
X4742Y194D01*
X4740Y194D01*
X4740Y196D01*
X4736Y196D01*
X4736Y198D01*
X4732Y198D01*
X4732Y200D01*
X4728Y200D01*
X4728Y202D01*
X4700Y202D01*
G37*
D02*
G04 End of Copper0*
M02*